%FSLAX23Y23*%
%MOIN*%
G04 EasyPC Gerber Version 18.0.6 Build 3620 *
%ADD11R,0.05100X0.05100*%
%ADD14R,0.05500X0.05500*%
%ADD10C,0.00100*%
%ADD15C,0.01181*%
%ADD17C,0.04800*%
%ADD12C,0.05100*%
%ADD13C,0.05500*%
%ADD16C,0.05600*%
X0Y0D02*
D02*
D10*
X389Y280D02*
X387Y283D01*
X384Y287*
X380Y288*
X375*
X372Y287*
X370Y283*
Y280*
X372Y277*
X375Y276*
X378Y277*
X380Y280*
Y283*
X378Y287*
X375Y288*
X389Y307D02*
X387Y308D01*
X386*
X389Y329D02*
Y335D01*
Y332D02*
X370D01*
X373Y329*
D02*
D11*
X153Y161D03*
Y2461D03*
X1103Y161D03*
Y2461D03*
X2053Y161D03*
Y2461D03*
X3003Y161D03*
Y2461D03*
D02*
D12*
X153Y461D03*
Y2761D03*
X253Y161D03*
Y461D03*
Y2461D03*
Y2761D03*
X353Y161D03*
Y461D03*
Y2461D03*
Y2761D03*
X453Y161D03*
Y461D03*
Y2461D03*
Y2761D03*
X553Y161D03*
Y461D03*
Y2461D03*
Y2761D03*
X653Y161D03*
Y461D03*
Y2461D03*
Y2761D03*
X753Y161D03*
Y461D03*
Y2461D03*
Y2761D03*
X853Y161D03*
Y461D03*
Y2461D03*
Y2761D03*
X1103Y461D03*
Y2761D03*
X1203Y161D03*
Y461D03*
Y2461D03*
Y2761D03*
X1303Y161D03*
Y461D03*
Y2461D03*
Y2761D03*
X1403Y161D03*
Y461D03*
Y2461D03*
Y2761D03*
X1503Y161D03*
Y461D03*
Y2461D03*
Y2761D03*
X1603Y161D03*
Y461D03*
Y2461D03*
Y2761D03*
X1703Y161D03*
Y461D03*
Y2461D03*
Y2761D03*
X1803Y161D03*
Y461D03*
Y2461D03*
Y2761D03*
X2053Y461D03*
Y2761D03*
X2153Y161D03*
Y461D03*
Y2461D03*
Y2761D03*
X2253Y161D03*
Y461D03*
Y2461D03*
Y2761D03*
X2353Y161D03*
Y461D03*
Y2461D03*
Y2761D03*
X2453Y161D03*
Y461D03*
Y2461D03*
Y2761D03*
X2553Y161D03*
Y461D03*
Y2461D03*
Y2761D03*
X2653Y161D03*
Y461D03*
Y2461D03*
Y2761D03*
X2753Y161D03*
Y461D03*
Y2461D03*
Y2761D03*
X3003Y461D03*
Y2761D03*
X3103Y161D03*
Y461D03*
Y2461D03*
Y2761D03*
X3203Y161D03*
Y461D03*
Y2461D03*
Y2761D03*
X3303Y161D03*
Y461D03*
Y2461D03*
Y2761D03*
X3403Y161D03*
Y461D03*
Y2461D03*
Y2761D03*
X3503Y161D03*
Y461D03*
Y2461D03*
Y2761D03*
X3603Y161D03*
Y461D03*
Y2461D03*
Y2761D03*
X3703Y161D03*
Y461D03*
Y2461D03*
Y2761D03*
D02*
D13*
X153Y761D03*
Y861D03*
Y1511D03*
Y1561D03*
Y2161D03*
Y2261D03*
X253Y761D03*
Y861D03*
Y1511D03*
Y1561D03*
Y2161D03*
Y2261D03*
X353Y761D03*
Y861D03*
Y1511D03*
Y1561D03*
Y2161D03*
Y2261D03*
X453Y761D03*
Y861D03*
Y1511D03*
Y1561D03*
Y2161D03*
Y2261D03*
X553Y761D03*
Y861D03*
Y1511D03*
Y1561D03*
Y2161D03*
Y2261D03*
X653Y761D03*
Y861D03*
Y1511D03*
Y1561D03*
Y2161D03*
Y2261D03*
X753Y761D03*
Y861D03*
Y1511D03*
Y1561D03*
Y2161D03*
Y2261D03*
X853Y761D03*
Y861D03*
Y1511D03*
Y1561D03*
Y2161D03*
Y2261D03*
X1103Y761D03*
Y861D03*
Y1511D03*
Y1561D03*
Y2161D03*
Y2261D03*
X1203Y761D03*
Y861D03*
Y1511D03*
Y1561D03*
Y2161D03*
Y2261D03*
X1303Y761D03*
Y861D03*
Y1511D03*
Y1561D03*
Y2161D03*
Y2261D03*
X1403Y761D03*
Y861D03*
Y1511D03*
Y1561D03*
Y2161D03*
Y2261D03*
X1503Y761D03*
Y861D03*
Y1511D03*
Y1561D03*
Y2161D03*
Y2261D03*
X1603Y761D03*
Y861D03*
Y1511D03*
Y1561D03*
Y2161D03*
Y2261D03*
X1703Y761D03*
Y861D03*
Y1511D03*
Y1561D03*
Y2161D03*
Y2261D03*
X1803Y761D03*
Y861D03*
Y1511D03*
Y1561D03*
Y2161D03*
Y2261D03*
X2053Y761D03*
Y861D03*
Y1511D03*
Y1561D03*
Y2161D03*
Y2261D03*
X2153Y761D03*
Y861D03*
Y1511D03*
Y1561D03*
Y2161D03*
Y2261D03*
X2253Y761D03*
Y861D03*
Y1511D03*
Y1561D03*
Y2161D03*
Y2261D03*
X2353Y761D03*
Y861D03*
Y1511D03*
Y1561D03*
Y2161D03*
Y2261D03*
X2453Y761D03*
Y861D03*
Y1511D03*
Y1561D03*
Y2161D03*
Y2261D03*
X2553Y761D03*
Y861D03*
Y1511D03*
Y1561D03*
Y2161D03*
Y2261D03*
X2653Y761D03*
Y861D03*
Y1511D03*
Y1561D03*
Y2161D03*
Y2261D03*
X2753Y761D03*
Y861D03*
Y1511D03*
Y1561D03*
Y2161D03*
Y2261D03*
X3003Y761D03*
Y861D03*
Y1511D03*
Y1561D03*
Y2161D03*
Y2261D03*
X3103Y761D03*
Y861D03*
Y1511D03*
Y1561D03*
Y2161D03*
Y2261D03*
X3203Y761D03*
Y861D03*
Y1511D03*
Y1561D03*
Y2161D03*
Y2261D03*
X3303Y761D03*
Y861D03*
Y1511D03*
Y1561D03*
Y2161D03*
Y2261D03*
X3403Y761D03*
Y861D03*
Y1511D03*
Y1561D03*
Y2161D03*
Y2261D03*
X3503Y761D03*
Y861D03*
Y1511D03*
Y1561D03*
Y2161D03*
Y2261D03*
X3603Y761D03*
Y861D03*
Y1511D03*
Y1561D03*
Y2161D03*
Y2261D03*
X3703Y761D03*
Y861D03*
Y1511D03*
Y1561D03*
Y2161D03*
Y2261D03*
X3853Y1261D03*
Y1361D03*
Y1461D03*
Y1561D03*
Y1661D03*
D02*
D14*
X153Y1058D03*
Y2015D03*
X253Y1058D03*
Y2015D03*
X353Y1058D03*
Y2015D03*
X453Y1058D03*
Y2015D03*
X553Y1058D03*
Y2015D03*
X653Y1058D03*
Y2015D03*
X753Y1058D03*
Y2015D03*
X853Y1058D03*
Y2015D03*
X1103Y1058D03*
Y2015D03*
X1203Y1058D03*
Y2015D03*
X1303Y1058D03*
Y2015D03*
X1403Y1058D03*
Y2015D03*
X1503Y1058D03*
Y2015D03*
X1603Y1058D03*
Y2015D03*
X1703Y1058D03*
Y2015D03*
X1803Y1058D03*
Y2015D03*
X2053Y1058D03*
Y2015D03*
X2153Y1058D03*
Y2015D03*
X2253Y1058D03*
Y2015D03*
X2353Y1058D03*
Y2015D03*
X2453Y1058D03*
Y2015D03*
X2553Y1058D03*
Y2015D03*
X2653Y1058D03*
Y2015D03*
X2753Y1058D03*
Y2015D03*
X3003Y1058D03*
Y2015D03*
X3103Y1058D03*
Y2015D03*
X3203Y1058D03*
Y2015D03*
X3303Y1058D03*
Y2015D03*
X3403Y1058D03*
Y2015D03*
X3503Y1058D03*
Y2015D03*
X3603Y1058D03*
Y2015D03*
X3703Y1058D03*
Y2015D03*
D02*
D15*
X103Y761D02*
X153D01*
X103D02*
Y1058D01*
X153*
X103Y761D02*
Y161D01*
X153*
Y2161D02*
X103D01*
Y2461*
X153*
Y2161D02*
Y2015D01*
X203Y711D02*
X153D01*
Y461*
X253Y761D02*
Y461D01*
Y761D02*
X203D01*
Y1058*
X253*
Y2161D02*
X203D01*
Y2761*
X253*
Y2161D02*
Y2015D01*
X303Y611D02*
Y161D01*
X353*
Y761D02*
Y461D01*
Y761D02*
X303D01*
Y1058*
X353*
Y2161D02*
X303D01*
Y2761*
X353*
Y2161D02*
Y2015D01*
X453Y761D02*
Y461D01*
Y761D02*
X403D01*
Y1058*
X453*
Y2161D02*
X403D01*
Y2761*
X453*
Y2161D02*
Y2015D01*
X503Y761D02*
X553D01*
X503D02*
Y1058D01*
X553*
X503Y761D02*
Y161D01*
X453*
X553Y2161D02*
X503D01*
Y2461*
X453*
X553Y2161D02*
Y2015D01*
X603Y761D02*
X653D01*
X603D02*
Y1058D01*
X653*
X603Y761D02*
Y161D01*
X553*
X653Y2161D02*
X603D01*
Y2461*
X553*
X653Y2161D02*
Y2015D01*
X703Y761D02*
X753D01*
X703D02*
Y1058D01*
X753*
X703Y761D02*
Y161D01*
X653*
X753Y361D02*
Y461D01*
Y2161D02*
X703D01*
Y2461*
X653*
X753Y2161D02*
Y2015D01*
Y2661D02*
Y2761D01*
X803Y911D02*
Y161D01*
X753*
X803Y2411D02*
Y961D01*
X853*
X803Y2811D02*
Y2461D01*
X853*
Y161D02*
X903D01*
Y1511*
X853*
Y261D02*
Y161D01*
Y561D02*
Y461D01*
Y2015D02*
Y2161D01*
Y2261D02*
X903D01*
Y2761*
X1103*
X853Y2361D02*
Y2261D01*
X953Y461D02*
Y1111D01*
Y2461D02*
Y1561D01*
X853*
X1003Y161D02*
Y761D01*
X1103*
X1003D02*
Y1058D01*
X1103*
Y961D02*
Y861D01*
Y2461D02*
Y2261D01*
X1153D02*
X1203D01*
X1153D02*
Y2761D01*
X1203*
X1153Y2261D02*
Y2015D01*
X1203*
Y761D02*
Y461D01*
Y761D02*
X1153D01*
Y1058*
X1203*
X1253Y511D02*
Y161D01*
X1303*
X1253Y2261D02*
X1303D01*
X1253D02*
Y2761D01*
X1303*
X1253Y2261D02*
Y2015D01*
X1303*
Y761D02*
Y461D01*
Y761D02*
X1253D01*
Y1058*
X1303*
X1353Y2261D02*
X1403D01*
X1353D02*
Y2761D01*
X1403*
X1353Y2261D02*
Y2015D01*
X1403*
Y761D02*
Y461D01*
Y761D02*
X1353D01*
Y1058*
X1403*
X1453Y761D02*
X1503D01*
X1453D02*
Y1058D01*
X1503*
X1453Y761D02*
Y161D01*
X1403*
X1453Y2261D02*
X1503D01*
X1453D02*
Y2461D01*
X1403*
X1453Y2261D02*
Y2015D01*
X1503*
X1553Y761D02*
X1603D01*
X1553D02*
Y1058D01*
X1603*
X1553Y761D02*
Y161D01*
X1503*
X1553Y2261D02*
X1603D01*
X1553D02*
Y2461D01*
X1503*
X1553Y2261D02*
Y2015D01*
X1603*
Y611D02*
Y461D01*
X1653Y761D02*
X1703D01*
X1653D02*
Y1058D01*
X1703*
X1653Y761D02*
Y161D01*
X1603*
X1653Y2261D02*
X1703D01*
X1653D02*
Y2461D01*
X1603*
X1653Y2261D02*
Y2015D01*
X1703*
Y161D02*
X1753D01*
Y761*
X1803*
X1703Y311D02*
Y461D01*
Y2661D02*
Y2761D01*
X1753Y2261D02*
X1803D01*
X1753D02*
Y2015D01*
X1803*
X1753Y2261D02*
Y2461D01*
X1703*
X1753Y2711D02*
Y2511D01*
X1603*
Y2761*
X1803Y261D02*
Y161D01*
Y361D02*
Y461D01*
Y561D02*
Y461D01*
Y2461D02*
X1853D01*
Y1561*
X1803*
Y2661D02*
Y2761D01*
X1903Y511D02*
Y411D01*
X1953Y761D02*
X2053D01*
X1953D02*
Y161D01*
Y761D02*
Y1061D01*
Y2161D02*
Y2761D01*
X2053*
Y2261D02*
X2003D01*
Y2015*
X2053*
Y2261D02*
Y2461D01*
X2103Y2261D02*
X2153D01*
X2103D02*
Y2761D01*
X2153*
X2103Y2261D02*
Y2015D01*
X2153*
Y761D02*
Y461D01*
Y761D02*
X2103D01*
Y1058*
X2153*
X2203Y561D02*
Y161D01*
X2253*
X2203Y2261D02*
X2253D01*
X2203D02*
Y2761D01*
X2253*
X2203Y2261D02*
Y2015D01*
X2253*
Y761D02*
Y461D01*
Y761D02*
X2203D01*
Y1058*
X2253*
X2303Y2261D02*
X2353D01*
X2303D02*
Y2761D01*
X2353*
X2303Y2261D02*
Y2015D01*
X2353*
Y761D02*
Y461D01*
Y761D02*
X2303D01*
Y1058*
X2353*
X2403Y761D02*
X2453D01*
X2403D02*
Y1058D01*
X2453*
X2403Y761D02*
Y161D01*
X2353*
X2403Y2261D02*
X2453D01*
X2403D02*
Y2461D01*
X2353*
X2403Y2261D02*
Y2015D01*
X2453*
X2503Y761D02*
X2553D01*
X2503D02*
Y1058D01*
X2553*
X2503Y761D02*
Y161D01*
X2453*
X2503Y2261D02*
X2553D01*
X2503D02*
Y2461D01*
X2453*
X2503Y2261D02*
Y2015D01*
X2553*
Y2561D02*
Y2761D01*
X2603Y761D02*
X2653D01*
X2603D02*
Y1058D01*
X2653*
X2603Y761D02*
Y161D01*
X2553*
X2603Y2261D02*
X2653D01*
X2603D02*
Y2461D01*
X2553*
X2603Y2261D02*
Y2015D01*
X2653*
Y161D02*
X2703D01*
Y761*
X2753*
X2653Y311D02*
Y461D01*
Y611D02*
Y461D01*
Y2611D02*
Y2761D01*
Y2861*
X1703*
Y2761*
X2703Y911D02*
Y1361D01*
X2753Y261D02*
Y161D01*
Y361D02*
Y461D01*
Y961D02*
Y861D01*
Y2261D02*
Y2311D01*
X2653*
Y2461*
X2753D02*
X2803D01*
Y1561*
X2753*
X2803Y411D02*
Y911D01*
X2853Y761D02*
Y1058D01*
X2753*
X2903Y161D02*
Y861D01*
X3003*
X2903Y2311D02*
Y2161D01*
Y2311D02*
Y2761D01*
X3003*
Y461D02*
Y761D01*
Y861D02*
Y1058D01*
Y2261D02*
X2953D01*
Y2015*
X3003*
Y2261D02*
Y2461D01*
X3053Y2261D02*
X3103D01*
X3053D02*
Y2761D01*
X3103*
X3053Y2261D02*
Y2015D01*
X3103*
Y861D02*
X3053D01*
Y461*
X3103*
Y861D02*
Y1058D01*
X3153Y2261D02*
X3203D01*
X3153D02*
Y2761D01*
X3203*
X3153Y2261D02*
Y2015D01*
X3203*
Y861D02*
X3153D01*
Y461*
X3203*
Y861D02*
Y1058D01*
X3253Y2261D02*
X3303D01*
X3253D02*
Y2761D01*
X3303*
X3253Y2261D02*
Y2015D01*
X3303*
Y861D02*
X3253D01*
Y461*
X3303*
Y861D02*
Y1058D01*
X3353Y1861D02*
Y1661D01*
X3453*
Y1761*
X3353*
Y1861*
X3453*
Y1761*
X3353Y2261D02*
X3403D01*
X3353D02*
Y2461D01*
X3303*
X3353Y2261D02*
Y2015D01*
X3403*
Y311D02*
Y161D01*
Y861D02*
Y1058D01*
Y861D02*
X3353D01*
Y161*
X3303*
X3453Y911D02*
Y161D01*
X3503*
X3453Y2261D02*
X3503D01*
X3453D02*
Y2461D01*
X3403*
X3453Y2261D02*
Y2015D01*
X3503*
Y561D02*
Y461D01*
Y961D02*
Y861D01*
Y961D02*
Y1058D01*
X3553Y811D02*
Y1411D01*
Y2261D02*
X3603D01*
X3553D02*
Y2461D01*
X3503*
X3553Y2261D02*
Y2015D01*
X3603*
X3553Y2511D02*
X3503D01*
Y2761*
X3603Y611D02*
Y461D01*
Y1058D02*
Y861D01*
Y2461D02*
X3653D01*
Y2261*
X3703*
X3603Y2611D02*
Y2761D01*
X3653Y2211D02*
Y1261D01*
Y2511D02*
X3703D01*
Y2661*
Y361D02*
Y461D01*
X3853*
Y1261*
X3703Y861D02*
Y1058D01*
Y861D02*
X3653D01*
Y161*
X3603*
X3703Y2461D02*
X3853D01*
Y1661*
X3703Y2661D02*
Y2761D01*
X3753Y1136D02*
Y1361D01*
X3803*
Y1461*
X3853*
X3753Y1561D02*
X3853D01*
X3753D02*
Y2161D01*
X3703*
X3753Y1561D02*
Y1411D01*
X3803Y1311D02*
X3853D01*
Y1361*
X3803Y1611D02*
Y2411D01*
D02*
D16*
X203Y711D03*
X803Y2811D03*
X853Y261D03*
Y2361D03*
X953Y461D03*
Y1111D03*
Y2461D03*
X1103Y961D03*
X1803Y261D03*
X1953Y2161D03*
X2753Y261D03*
Y961D03*
X2903Y2161D03*
Y2311D03*
X3553Y811D03*
Y1411D03*
X3753D03*
D02*
D17*
X303Y611D03*
X394Y394D03*
X753Y361D03*
Y2661D03*
X803Y911D03*
Y2411D03*
X853Y561D03*
Y961D03*
X1003Y161D03*
Y761D03*
X1253Y511D03*
X1603Y611D03*
X1703Y311D03*
Y2661D03*
X1753Y2711D03*
X1803Y361D03*
Y561D03*
Y2661D03*
X1903Y411D03*
Y511D03*
X1953Y161D03*
Y1061D03*
X2203Y561D03*
X2553Y2561D03*
X2653Y311D03*
Y611D03*
Y2611D03*
X2703Y911D03*
Y1361D03*
X2753Y361D03*
X2803Y411D03*
Y911D03*
X2853Y761D03*
X2903Y161D03*
X3403Y311D03*
X3453Y911D03*
X3503Y561D03*
Y961D03*
X3553Y2511D03*
X3603Y611D03*
Y2611D03*
X3653Y1261D03*
Y2211D03*
Y2511D03*
X3703Y361D03*
Y2661D03*
X3753Y1136D03*
X3803Y1311D03*
Y1611D03*
Y2411D03*
X0Y0D02*
M02*
