%FSLAX35Y35*%
%MOIN*%
G04 EasyPC Gerber Version 18.0.9 Build 3640 *
%ADD16R,0.05100X0.05100*%
%ADD19R,0.05500X0.05500*%
%ADD15C,0.00100*%
%ADD70C,0.01181*%
%ADD12C,0.04800*%
%ADD17C,0.05100*%
%ADD18C,0.05500*%
%ADD71C,0.05600*%
X0Y0D02*
D02*
D12*
X30319Y61147D03*
X39370Y39370D03*
X75319Y36147D03*
Y266147D03*
X80319Y91147D03*
Y241147D03*
X85319Y56147D03*
Y96147D03*
X100319Y16147D03*
Y76147D03*
X125319Y51147D03*
X160319Y61147D03*
X170319Y31147D03*
Y266147D03*
X175319Y271147D03*
X180319Y36147D03*
Y56147D03*
Y266147D03*
X190319Y41147D03*
Y51147D03*
X195319Y16147D03*
Y106147D03*
X220319Y56147D03*
X255319Y256147D03*
X265319Y31147D03*
Y61147D03*
Y261147D03*
X270319Y91147D03*
Y136147D03*
X275319Y36147D03*
X280319Y41147D03*
Y91147D03*
X285319Y76147D03*
X290319Y16147D03*
X340319Y31147D03*
X345319Y91147D03*
X350319Y56147D03*
Y96147D03*
X355319Y251147D03*
X360319Y61147D03*
Y261147D03*
X365319Y126147D03*
Y221147D03*
Y251147D03*
X370319Y36147D03*
Y266147D03*
X375319Y113647D03*
X380319Y131147D03*
Y161147D03*
Y241147D03*
D02*
D15*
X38902Y28028D02*
X38745Y28340D01*
X38433Y28653*
X37964Y28809*
X37495*
X37183Y28653*
X37027Y28340*
Y28028*
X37183Y27715*
X37495Y27559*
X37808Y27715*
X37964Y28028*
Y28340*
X37808Y28653*
X37495Y28809*
X38902Y30684D02*
X38745Y30840D01*
X38589*
X38902Y32872D02*
Y33496D01*
Y33184D02*
X37027D01*
X37339Y32872*
D02*
D16*
X15319Y16147D03*
Y246147D03*
X110319Y16147D03*
Y246147D03*
X205319Y16147D03*
Y246147D03*
X300319Y16147D03*
Y246147D03*
D02*
D17*
X15319Y46147D03*
Y276147D03*
X25319Y16147D03*
Y46147D03*
Y246147D03*
Y276147D03*
X35319Y16147D03*
Y46147D03*
Y246147D03*
Y276147D03*
X45319Y16147D03*
Y46147D03*
Y246147D03*
Y276147D03*
X55319Y16147D03*
Y46147D03*
Y246147D03*
Y276147D03*
X65319Y16147D03*
Y46147D03*
Y246147D03*
Y276147D03*
X75319Y16147D03*
Y46147D03*
Y246147D03*
Y276147D03*
X85319Y16147D03*
Y46147D03*
Y246147D03*
Y276147D03*
X110319Y46147D03*
Y276147D03*
X120319Y16147D03*
Y46147D03*
Y246147D03*
Y276147D03*
X130319Y16147D03*
Y46147D03*
Y246147D03*
Y276147D03*
X140319Y16147D03*
Y46147D03*
Y246147D03*
Y276147D03*
X150319Y16147D03*
Y46147D03*
Y246147D03*
Y276147D03*
X160319Y16147D03*
Y46147D03*
Y246147D03*
Y276147D03*
X170319Y16147D03*
Y46147D03*
Y246147D03*
Y276147D03*
X180319Y16147D03*
Y46147D03*
Y246147D03*
Y276147D03*
X205319Y46147D03*
Y276147D03*
X215319Y16147D03*
Y46147D03*
Y246147D03*
Y276147D03*
X225319Y16147D03*
Y46147D03*
Y246147D03*
Y276147D03*
X235319Y16147D03*
Y46147D03*
Y246147D03*
Y276147D03*
X245319Y16147D03*
Y46147D03*
Y246147D03*
Y276147D03*
X255319Y16147D03*
Y46147D03*
Y246147D03*
Y276147D03*
X265319Y16147D03*
Y46147D03*
Y246147D03*
Y276147D03*
X275319Y16147D03*
Y46147D03*
Y246147D03*
Y276147D03*
X300319Y46147D03*
Y276147D03*
X310319Y16147D03*
Y46147D03*
Y246147D03*
Y276147D03*
X320319Y16147D03*
Y46147D03*
Y246147D03*
Y276147D03*
X330319Y16147D03*
Y46147D03*
Y246147D03*
Y276147D03*
X340319Y16147D03*
Y46147D03*
Y246147D03*
Y276147D03*
X350319Y16147D03*
Y46147D03*
Y246147D03*
Y276147D03*
X360319Y16147D03*
Y46147D03*
Y246147D03*
Y276147D03*
X370319Y16147D03*
Y46147D03*
Y246147D03*
Y276147D03*
D02*
D18*
X15319Y76147D03*
Y86147D03*
Y151147D03*
Y156147D03*
Y216147D03*
Y226147D03*
X25319Y76147D03*
Y86147D03*
Y151147D03*
Y156147D03*
Y216147D03*
Y226147D03*
X35319Y76147D03*
Y86147D03*
Y151147D03*
Y156147D03*
Y216147D03*
Y226147D03*
X45319Y76147D03*
Y86147D03*
Y151147D03*
Y156147D03*
Y216147D03*
Y226147D03*
X55319Y76147D03*
Y86147D03*
Y151147D03*
Y156147D03*
Y216147D03*
Y226147D03*
X65319Y76147D03*
Y86147D03*
Y151147D03*
Y156147D03*
Y216147D03*
Y226147D03*
X75319Y76147D03*
Y86147D03*
Y151147D03*
Y156147D03*
Y216147D03*
Y226147D03*
X85319Y76147D03*
Y86147D03*
Y151147D03*
Y156147D03*
Y216147D03*
Y226147D03*
X110319Y76147D03*
Y86147D03*
Y151147D03*
Y156147D03*
Y216147D03*
Y226147D03*
X120319Y76147D03*
Y86147D03*
Y151147D03*
Y156147D03*
Y216147D03*
Y226147D03*
X130319Y76147D03*
Y86147D03*
Y151147D03*
Y156147D03*
Y216147D03*
Y226147D03*
X140319Y76147D03*
Y86147D03*
Y151147D03*
Y156147D03*
Y216147D03*
Y226147D03*
X150319Y76147D03*
Y86147D03*
Y151147D03*
Y156147D03*
Y216147D03*
Y226147D03*
X160319Y76147D03*
Y86147D03*
Y151147D03*
Y156147D03*
Y216147D03*
Y226147D03*
X170319Y76147D03*
Y86147D03*
Y151147D03*
Y156147D03*
Y216147D03*
Y226147D03*
X180319Y76147D03*
Y86147D03*
Y151147D03*
Y156147D03*
Y216147D03*
Y226147D03*
X205319Y76147D03*
Y86147D03*
Y151147D03*
Y156147D03*
Y216147D03*
Y226147D03*
X215319Y76147D03*
Y86147D03*
Y151147D03*
Y156147D03*
Y216147D03*
Y226147D03*
X225319Y76147D03*
Y86147D03*
Y151147D03*
Y156147D03*
Y216147D03*
Y226147D03*
X235319Y76147D03*
Y86147D03*
Y151147D03*
Y156147D03*
Y216147D03*
Y226147D03*
X245319Y76147D03*
Y86147D03*
Y151147D03*
Y156147D03*
Y216147D03*
Y226147D03*
X255319Y76147D03*
Y86147D03*
Y151147D03*
Y156147D03*
Y216147D03*
Y226147D03*
X265319Y76147D03*
Y86147D03*
Y151147D03*
Y156147D03*
Y216147D03*
Y226147D03*
X275319Y76147D03*
Y86147D03*
Y151147D03*
Y156147D03*
Y216147D03*
Y226147D03*
X300319Y76147D03*
Y86147D03*
Y151147D03*
Y156147D03*
Y216147D03*
Y226147D03*
X310319Y76147D03*
Y86147D03*
Y151147D03*
Y156147D03*
Y216147D03*
Y226147D03*
X320319Y76147D03*
Y86147D03*
Y151147D03*
Y156147D03*
Y216147D03*
Y226147D03*
X330319Y76147D03*
Y86147D03*
Y151147D03*
Y156147D03*
Y216147D03*
Y226147D03*
X340319Y76147D03*
Y86147D03*
Y151147D03*
Y156147D03*
Y216147D03*
Y226147D03*
X350319Y76147D03*
Y86147D03*
Y151147D03*
Y156147D03*
Y216147D03*
Y226147D03*
X360319Y76147D03*
Y86147D03*
Y151147D03*
Y156147D03*
Y216147D03*
Y226147D03*
X370319Y76147D03*
Y86147D03*
Y151147D03*
Y156147D03*
Y216147D03*
Y226147D03*
X385319Y126147D03*
Y136147D03*
Y146147D03*
Y156147D03*
Y166147D03*
D02*
D19*
X15319Y105787D03*
Y201507D03*
X25319Y105787D03*
Y201507D03*
X35319Y105787D03*
Y201507D03*
X45319Y105787D03*
Y201507D03*
X55319Y105787D03*
Y201507D03*
X65319Y105787D03*
Y201507D03*
X75319Y105787D03*
Y201507D03*
X85319Y105787D03*
Y201507D03*
X110319Y105787D03*
Y201507D03*
X120319Y105787D03*
Y201507D03*
X130319Y105787D03*
Y201507D03*
X140319Y105787D03*
Y201507D03*
X150319Y105787D03*
Y201507D03*
X160319Y105787D03*
Y201507D03*
X170319Y105787D03*
Y201507D03*
X180319Y105787D03*
Y201507D03*
X205319Y105787D03*
Y201507D03*
X215319Y105787D03*
Y201507D03*
X225319Y105787D03*
Y201507D03*
X235319Y105787D03*
Y201507D03*
X245319Y105787D03*
Y201507D03*
X255319Y105787D03*
Y201507D03*
X265319Y105787D03*
Y201507D03*
X275319Y105787D03*
Y201507D03*
X300319Y105787D03*
Y201507D03*
X310319Y105787D03*
Y201507D03*
X320319Y105787D03*
Y201507D03*
X330319Y105787D03*
Y201507D03*
X340319Y105787D03*
Y201507D03*
X350319Y105787D03*
Y201507D03*
X360319Y105787D03*
Y201507D03*
X370319Y105787D03*
Y201507D03*
D02*
D70*
X10319Y76147D02*
X15319D01*
X10319D02*
Y105787D01*
X15319*
X10319Y76147D02*
Y16147D01*
X15319*
Y216147D02*
X10319D01*
Y246147*
X15319*
Y216147D02*
Y201507D01*
X20319Y71147D02*
X15319D01*
Y46147*
X25319Y76147D02*
Y46147D01*
Y76147D02*
X20319D01*
Y105787*
X25319*
Y216147D02*
X20319D01*
Y276147*
X25319*
Y216147D02*
Y201507D01*
X30319Y61147D02*
Y16147D01*
X35319*
Y76147D02*
Y46147D01*
Y76147D02*
X30319D01*
Y105787*
X35319*
Y216147D02*
X30319D01*
Y276147*
X35319*
Y216147D02*
Y201507D01*
X45319Y76147D02*
Y46147D01*
Y76147D02*
X40319D01*
Y105787*
X45319*
Y216147D02*
X40319D01*
Y276147*
X45319*
Y216147D02*
Y201507D01*
X50319Y76147D02*
X55319D01*
X50319D02*
Y105787D01*
X55319*
X50319Y76147D02*
Y16147D01*
X45319*
X55319Y216147D02*
X50319D01*
Y246147*
X45319*
X55319Y216147D02*
Y201507D01*
X60319Y76147D02*
X65319D01*
X60319D02*
Y105787D01*
X65319*
X60319Y76147D02*
Y16147D01*
X55319*
X65319Y216147D02*
X60319D01*
Y246147*
X55319*
X65319Y216147D02*
Y201507D01*
X70319Y76147D02*
X75319D01*
X70319D02*
Y105787D01*
X75319*
X70319Y76147D02*
Y16147D01*
X65319*
X75319Y36147D02*
Y46147D01*
Y216147D02*
X70319D01*
Y246147*
X65319*
X75319Y216147D02*
Y201507D01*
Y266147D02*
Y276147D01*
X80319Y91147D02*
Y16147D01*
X75319*
X80319Y241147D02*
Y96147D01*
X85319*
X80319Y281147D02*
Y246147D01*
X85319*
Y16147D02*
X90319D01*
Y151147*
X85319*
Y26147D02*
Y16147D01*
Y56147D02*
Y46147D01*
Y201507D02*
Y216147D01*
Y226147D02*
X90319D01*
Y276147*
X110319*
X85319Y236147D02*
Y226147D01*
X95319Y46147D02*
Y111147D01*
Y246147D02*
Y156147D01*
X85319*
X100319Y16147D02*
Y76147D01*
X110319*
X100319D02*
Y105787D01*
X110319*
Y96147D02*
Y86147D01*
Y246147D02*
Y226147D01*
X115319D02*
X120319D01*
X115319D02*
Y276147D01*
X120319*
X115319Y226147D02*
Y201507D01*
X120319*
Y76147D02*
Y46147D01*
Y76147D02*
X115319D01*
Y105787*
X120319*
X125319Y51147D02*
Y16147D01*
X130319*
X125319Y226147D02*
X130319D01*
X125319D02*
Y276147D01*
X130319*
X125319Y226147D02*
Y201507D01*
X130319*
Y76147D02*
Y46147D01*
Y76147D02*
X125319D01*
Y105787*
X130319*
X135319Y226147D02*
X140319D01*
X135319D02*
Y276147D01*
X140319*
X135319Y226147D02*
Y201507D01*
X140319*
Y76147D02*
Y46147D01*
Y76147D02*
X135319D01*
Y105787*
X140319*
X145319Y76147D02*
X150319D01*
X145319D02*
Y105787D01*
X150319*
X145319Y76147D02*
Y16147D01*
X140319*
X145319Y226147D02*
X150319D01*
X145319D02*
Y246147D01*
X140319*
X145319Y226147D02*
Y201507D01*
X150319*
X155319Y76147D02*
X160319D01*
X155319D02*
Y105787D01*
X160319*
X155319Y76147D02*
Y16147D01*
X150319*
X155319Y226147D02*
X160319D01*
X155319D02*
Y246147D01*
X150319*
X155319Y226147D02*
Y201507D01*
X160319*
Y61147D02*
Y46147D01*
X165319Y76147D02*
X170319D01*
X165319D02*
Y105787D01*
X170319*
X165319Y76147D02*
Y16147D01*
X160319*
X165319Y226147D02*
X170319D01*
X165319D02*
Y246147D01*
X160319*
X165319Y226147D02*
Y201507D01*
X170319*
Y16147D02*
X175319D01*
Y76147*
X180319*
X170319Y31147D02*
Y46147D01*
Y266147D02*
Y276147D01*
X175319Y226147D02*
X180319D01*
X175319D02*
Y201507D01*
X180319*
X175319Y226147D02*
Y246147D01*
X170319*
X175319Y271147D02*
Y251147D01*
X160319*
Y276147*
X180319Y26147D02*
Y16147D01*
Y36147D02*
Y46147D01*
Y56147D02*
Y46147D01*
Y246147D02*
X185319D01*
Y156147*
X180319*
Y266147D02*
Y276147D01*
X190319Y51147D02*
Y41147D01*
X195319Y76147D02*
X205319D01*
X195319D02*
Y16147D01*
Y76147D02*
Y106147D01*
Y216147D02*
Y276147D01*
X205319*
Y226147D02*
X200319D01*
Y201507*
X205319*
Y226147D02*
Y246147D01*
X210319Y226147D02*
X215319D01*
X210319D02*
Y276147D01*
X215319*
X210319Y226147D02*
Y201507D01*
X215319*
Y76147D02*
Y46147D01*
Y76147D02*
X210319D01*
Y105787*
X215319*
X220319Y56147D02*
Y16147D01*
X225319*
X220319Y226147D02*
X225319D01*
X220319D02*
Y276147D01*
X225319*
X220319Y226147D02*
Y201507D01*
X225319*
Y76147D02*
Y46147D01*
Y76147D02*
X220319D01*
Y105787*
X225319*
X230319Y226147D02*
X235319D01*
X230319D02*
Y276147D01*
X235319*
X230319Y226147D02*
Y201507D01*
X235319*
Y76147D02*
Y46147D01*
Y76147D02*
X230319D01*
Y105787*
X235319*
X240319Y76147D02*
X245319D01*
X240319D02*
Y105787D01*
X245319*
X240319Y76147D02*
Y16147D01*
X235319*
X240319Y226147D02*
X245319D01*
X240319D02*
Y246147D01*
X235319*
X240319Y226147D02*
Y201507D01*
X245319*
X250319Y76147D02*
X255319D01*
X250319D02*
Y105787D01*
X255319*
X250319Y76147D02*
Y16147D01*
X245319*
X250319Y226147D02*
X255319D01*
X250319D02*
Y246147D01*
X245319*
X250319Y226147D02*
Y201507D01*
X255319*
Y256147D02*
Y276147D01*
X260319Y76147D02*
X265319D01*
X260319D02*
Y105787D01*
X265319*
X260319Y76147D02*
Y16147D01*
X255319*
X260319Y226147D02*
X265319D01*
X260319D02*
Y246147D01*
X255319*
X260319Y226147D02*
Y201507D01*
X265319*
Y16147D02*
X270319D01*
Y76147*
X275319*
X265319Y31147D02*
Y46147D01*
Y61147D02*
Y46147D01*
Y261147D02*
Y276147D01*
Y286147*
X170319*
Y276147*
X270319Y91147D02*
Y136147D01*
X275319Y26147D02*
Y16147D01*
Y36147D02*
Y46147D01*
Y96147D02*
Y86147D01*
Y226147D02*
Y231147D01*
X265319*
Y246147*
X275319D02*
X280319D01*
Y156147*
X275319*
X280319Y41147D02*
Y91147D01*
X285319Y76147D02*
Y105787D01*
X275319*
X290319Y16147D02*
Y86147D01*
X300319*
X290319Y231147D02*
Y216147D01*
Y231147D02*
Y276147D01*
X300319*
Y46147D02*
Y76147D01*
Y86147D02*
Y105787D01*
Y226147D02*
X295319D01*
Y201507*
X300319*
Y226147D02*
Y246147D01*
X305319Y226147D02*
X310319D01*
X305319D02*
Y276147D01*
X310319*
X305319Y226147D02*
Y201507D01*
X310319*
Y86147D02*
X305319D01*
Y46147*
X310319*
Y86147D02*
Y105787D01*
X315319Y226147D02*
X320319D01*
X315319D02*
Y276147D01*
X320319*
X315319Y226147D02*
Y201507D01*
X320319*
Y86147D02*
X315319D01*
Y46147*
X320319*
Y86147D02*
Y105787D01*
X325319Y226147D02*
X330319D01*
X325319D02*
Y276147D01*
X330319*
X325319Y226147D02*
Y201507D01*
X330319*
Y86147D02*
X325319D01*
Y46147*
X330319*
Y86147D02*
Y105787D01*
X335319Y186147D02*
Y166147D01*
X345319*
Y176147*
X335319*
Y186147*
X345319*
Y176147*
X335319Y226147D02*
X340319D01*
X335319D02*
Y246147D01*
X330319*
X335319Y226147D02*
Y201507D01*
X340319*
Y31147D02*
Y16147D01*
Y86147D02*
Y105787D01*
Y86147D02*
X335319D01*
Y16147*
X330319*
X345319Y91147D02*
Y16147D01*
X350319*
X345319Y226147D02*
X350319D01*
X345319D02*
Y246147D01*
X340319*
X345319Y226147D02*
Y201507D01*
X350319*
Y56147D02*
Y46147D01*
Y96147D02*
Y86147D01*
Y96147D02*
Y105787D01*
X355319Y81147D02*
Y141147D01*
Y226147D02*
X360319D01*
X355319D02*
Y246147D01*
X350319*
X355319Y226147D02*
Y201507D01*
X360319*
X355319Y251147D02*
X350319D01*
Y276147*
X360319Y61147D02*
Y46147D01*
Y105787D02*
Y86147D01*
Y246147D02*
X365319D01*
Y226147*
X370319*
X360319Y261147D02*
Y276147D01*
X365319Y221147D02*
Y126147D01*
Y251147D02*
X370319D01*
Y266147*
Y36147D02*
Y46147D01*
X385319*
Y126147*
X370319Y86147D02*
Y105787D01*
Y86147D02*
X365319D01*
Y16147*
X360319*
X370319Y246147D02*
X385319D01*
Y166147*
X370319Y266147D02*
Y276147D01*
X375319Y113647D02*
Y136147D01*
X380319*
Y146147*
X385319*
X375319Y156147D02*
X385319D01*
X375319D02*
Y216147D01*
X370319*
X375319Y156147D02*
Y141147D01*
X380319Y131147D02*
X385319D01*
Y136147*
X380319Y161147D02*
Y241147D01*
D02*
D71*
X20319Y71147D03*
X80319Y281147D03*
X85319Y26147D03*
Y236147D03*
X95319Y46147D03*
Y111147D03*
Y246147D03*
X110319Y96147D03*
X180319Y26147D03*
X195319Y216147D03*
X275319Y26147D03*
Y96147D03*
X290319Y216147D03*
Y231147D03*
X355319Y81147D03*
Y141147D03*
X375319D03*
X0Y0D02*
M02*
