%FSLAX23Y23*%
%MOIN*%
G04 EasyPC Gerber Version 18.0.1 Build 3581 *
%ADD14R,0.05100X0.05100*%
%ADD17R,0.05500X0.05500*%
%ADD19C,0.01181*%
%ADD18C,0.04800*%
%ADD15C,0.05100*%
%ADD16C,0.05500*%
%ADD70C,0.05600*%
X0Y0D02*
D02*
D14*
X156Y164D03*
Y2464D03*
X1106Y164D03*
Y2464D03*
X2056Y164D03*
Y2464D03*
X3006Y164D03*
Y2464D03*
D02*
D15*
X156Y464D03*
Y2764D03*
X256Y164D03*
Y464D03*
Y2464D03*
Y2764D03*
X356Y164D03*
Y464D03*
Y2464D03*
Y2764D03*
X456Y164D03*
Y464D03*
Y2464D03*
Y2764D03*
X556Y164D03*
Y464D03*
Y2464D03*
Y2764D03*
X656Y164D03*
Y464D03*
Y2464D03*
Y2764D03*
X756Y164D03*
Y464D03*
Y2464D03*
Y2764D03*
X856Y164D03*
Y464D03*
Y2464D03*
Y2764D03*
X1106Y464D03*
Y2764D03*
X1206Y164D03*
Y464D03*
Y2464D03*
Y2764D03*
X1306Y164D03*
Y464D03*
Y2464D03*
Y2764D03*
X1406Y164D03*
Y464D03*
Y2464D03*
Y2764D03*
X1506Y164D03*
Y464D03*
Y2464D03*
Y2764D03*
X1606Y164D03*
Y464D03*
Y2464D03*
Y2764D03*
X1706Y164D03*
Y464D03*
Y2464D03*
Y2764D03*
X1806Y164D03*
Y464D03*
Y2464D03*
Y2764D03*
X2056Y464D03*
Y2764D03*
X2156Y164D03*
Y464D03*
Y2464D03*
Y2764D03*
X2256Y164D03*
Y464D03*
Y2464D03*
Y2764D03*
X2356Y164D03*
Y464D03*
Y2464D03*
Y2764D03*
X2456Y164D03*
Y464D03*
Y2464D03*
Y2764D03*
X2556Y164D03*
Y464D03*
Y2464D03*
Y2764D03*
X2656Y164D03*
Y464D03*
Y2464D03*
Y2764D03*
X2756Y164D03*
Y464D03*
Y2464D03*
Y2764D03*
X3006Y464D03*
Y2764D03*
X3106Y164D03*
Y464D03*
Y2464D03*
Y2764D03*
X3206Y164D03*
Y464D03*
Y2464D03*
Y2764D03*
X3306Y164D03*
Y464D03*
Y2464D03*
Y2764D03*
X3406Y164D03*
Y464D03*
Y2464D03*
Y2764D03*
X3506Y164D03*
Y464D03*
Y2464D03*
Y2764D03*
X3606Y164D03*
Y464D03*
Y2464D03*
Y2764D03*
X3706Y164D03*
Y464D03*
Y2464D03*
Y2764D03*
D02*
D16*
X156Y764D03*
Y864D03*
Y1514D03*
Y1564D03*
Y2164D03*
Y2264D03*
X256Y764D03*
Y864D03*
Y1514D03*
Y1564D03*
Y2164D03*
Y2264D03*
X356Y764D03*
Y864D03*
Y1514D03*
Y1564D03*
Y2164D03*
Y2264D03*
X456Y764D03*
Y864D03*
Y1514D03*
Y1564D03*
Y2164D03*
Y2264D03*
X556Y764D03*
Y864D03*
Y1514D03*
Y1564D03*
Y2164D03*
Y2264D03*
X656Y764D03*
Y864D03*
Y1514D03*
Y1564D03*
Y2164D03*
Y2264D03*
X756Y764D03*
Y864D03*
Y1514D03*
Y1564D03*
Y2164D03*
Y2264D03*
X856Y764D03*
Y864D03*
Y1514D03*
Y1564D03*
Y2164D03*
Y2264D03*
X1106Y764D03*
Y864D03*
Y1514D03*
Y1564D03*
Y2164D03*
Y2264D03*
X1206Y764D03*
Y864D03*
Y1514D03*
Y1564D03*
Y2164D03*
Y2264D03*
X1306Y764D03*
Y864D03*
Y1514D03*
Y1564D03*
Y2164D03*
Y2264D03*
X1406Y764D03*
Y864D03*
Y1514D03*
Y1564D03*
Y2164D03*
Y2264D03*
X1506Y764D03*
Y864D03*
Y1514D03*
Y1564D03*
Y2164D03*
Y2264D03*
X1606Y764D03*
Y864D03*
Y1514D03*
Y1564D03*
Y2164D03*
Y2264D03*
X1706Y764D03*
Y864D03*
Y1514D03*
Y1564D03*
Y2164D03*
Y2264D03*
X1806Y764D03*
Y864D03*
Y1514D03*
Y1564D03*
Y2164D03*
Y2264D03*
X2056Y764D03*
Y864D03*
Y1514D03*
Y1564D03*
Y2164D03*
Y2264D03*
X2156Y764D03*
Y864D03*
Y1514D03*
Y1564D03*
Y2164D03*
Y2264D03*
X2256Y764D03*
Y864D03*
Y1514D03*
Y1564D03*
Y2164D03*
Y2264D03*
X2356Y764D03*
Y864D03*
Y1514D03*
Y1564D03*
Y2164D03*
Y2264D03*
X2456Y764D03*
Y864D03*
Y1514D03*
Y1564D03*
Y2164D03*
Y2264D03*
X2556Y764D03*
Y864D03*
Y1514D03*
Y1564D03*
Y2164D03*
Y2264D03*
X2656Y764D03*
Y864D03*
Y1514D03*
Y1564D03*
Y2164D03*
Y2264D03*
X2756Y764D03*
Y864D03*
Y1514D03*
Y1564D03*
Y2164D03*
Y2264D03*
X3006Y764D03*
Y864D03*
Y1514D03*
Y1564D03*
Y2164D03*
Y2264D03*
X3106Y764D03*
Y864D03*
Y1514D03*
Y1564D03*
Y2164D03*
Y2264D03*
X3206Y764D03*
Y864D03*
Y1514D03*
Y1564D03*
Y2164D03*
Y2264D03*
X3306Y764D03*
Y864D03*
Y1514D03*
Y1564D03*
Y2164D03*
Y2264D03*
X3406Y764D03*
Y864D03*
Y1514D03*
Y1564D03*
Y2164D03*
Y2264D03*
X3506Y764D03*
Y864D03*
Y1514D03*
Y1564D03*
Y2164D03*
Y2264D03*
X3606Y764D03*
Y864D03*
Y1514D03*
Y1564D03*
Y2164D03*
Y2264D03*
X3706Y764D03*
Y864D03*
Y1514D03*
Y1564D03*
Y2164D03*
Y2264D03*
X3856Y1264D03*
Y1364D03*
Y1464D03*
Y1564D03*
Y1664D03*
D02*
D17*
X156Y1060D03*
Y2018D03*
X256Y1060D03*
Y2018D03*
X356Y1060D03*
Y2018D03*
X456Y1060D03*
Y2018D03*
X556Y1060D03*
Y2018D03*
X656Y1060D03*
Y2018D03*
X756Y1060D03*
Y2018D03*
X856Y1060D03*
Y2018D03*
X1106Y1060D03*
Y2018D03*
X1206Y1060D03*
Y2018D03*
X1306Y1060D03*
Y2018D03*
X1406Y1060D03*
Y2018D03*
X1506Y1060D03*
Y2018D03*
X1606Y1060D03*
Y2018D03*
X1706Y1060D03*
Y2018D03*
X1806Y1060D03*
Y2018D03*
X2056Y1060D03*
Y2018D03*
X2156Y1060D03*
Y2018D03*
X2256Y1060D03*
Y2018D03*
X2356Y1060D03*
Y2018D03*
X2456Y1060D03*
Y2018D03*
X2556Y1060D03*
Y2018D03*
X2656Y1060D03*
Y2018D03*
X2756Y1060D03*
Y2018D03*
X3006Y1060D03*
Y2018D03*
X3106Y1060D03*
Y2018D03*
X3206Y1060D03*
Y2018D03*
X3306Y1060D03*
Y2018D03*
X3406Y1060D03*
Y2018D03*
X3506Y1060D03*
Y2018D03*
X3606Y1060D03*
Y2018D03*
X3706Y1060D03*
Y2018D03*
D02*
D18*
X306Y614D03*
X756Y364D03*
Y2664D03*
X806Y914D03*
Y2414D03*
X856Y564D03*
Y964D03*
X1006Y164D03*
Y764D03*
X1256Y514D03*
X1606Y614D03*
X1706Y314D03*
Y2664D03*
X1756Y2714D03*
X1806Y364D03*
Y564D03*
Y2664D03*
X1906Y414D03*
Y514D03*
X1956Y164D03*
Y1064D03*
X2206Y564D03*
X2556Y2564D03*
X2656Y314D03*
Y614D03*
Y2614D03*
X2706Y914D03*
Y1364D03*
X2756Y364D03*
X2806Y414D03*
Y914D03*
X2856Y764D03*
X2906Y164D03*
X3406Y314D03*
X3456Y914D03*
X3506Y564D03*
Y964D03*
X3556Y2514D03*
X3606Y614D03*
Y2614D03*
X3656Y1264D03*
Y2214D03*
Y2514D03*
X3706Y364D03*
Y2664D03*
X3756Y1139D03*
X3806Y1314D03*
Y1614D03*
Y2414D03*
D02*
D19*
X106Y764D02*
X156D01*
X106D02*
Y1060D01*
X156*
X106Y764D02*
Y164D01*
X156*
Y2164D02*
X106D01*
Y2464*
X156*
Y2164D02*
Y2018D01*
X206Y714D02*
X156D01*
Y464*
X256Y764D02*
Y464D01*
Y764D02*
X206D01*
Y1060*
X256*
Y2164D02*
X206D01*
Y2764*
X256*
Y2164D02*
Y2018D01*
X306Y614D02*
Y164D01*
X356*
Y764D02*
Y464D01*
Y764D02*
X306D01*
Y1060*
X356*
Y2164D02*
X306D01*
Y2764*
X356*
Y2164D02*
Y2018D01*
X456Y764D02*
Y464D01*
Y764D02*
X406D01*
Y1060*
X456*
Y2164D02*
X406D01*
Y2764*
X456*
Y2164D02*
Y2018D01*
X506Y764D02*
X556D01*
X506D02*
Y1060D01*
X556*
X506Y764D02*
Y164D01*
X456*
X556Y2164D02*
X506D01*
Y2464*
X456*
X556Y2164D02*
Y2018D01*
X606Y764D02*
X656D01*
X606D02*
Y1060D01*
X656*
X606Y764D02*
Y164D01*
X556*
X656Y2164D02*
X606D01*
Y2464*
X556*
X656Y2164D02*
Y2018D01*
X706Y764D02*
X756D01*
X706D02*
Y1060D01*
X756*
X706Y764D02*
Y164D01*
X656*
X756Y364D02*
Y464D01*
Y2164D02*
X706D01*
Y2464*
X656*
X756Y2164D02*
Y2018D01*
Y2664D02*
Y2764D01*
X806Y914D02*
Y164D01*
X756*
X806Y2414D02*
Y964D01*
X856*
X806Y2814D02*
Y2464D01*
X856*
Y164D02*
X906D01*
Y1514*
X856*
Y264D02*
Y164D01*
Y564D02*
Y464D01*
Y2018D02*
Y2164D01*
Y2264D02*
X906D01*
Y2764*
X1106*
X856Y2364D02*
Y2264D01*
X956Y464D02*
Y1114D01*
Y2464D02*
Y1564D01*
X856*
X1006Y164D02*
Y764D01*
X1106*
X1006D02*
Y1060D01*
X1106*
Y964D02*
Y864D01*
Y2464D02*
Y2264D01*
X1156D02*
X1206D01*
X1156D02*
Y2764D01*
X1206*
X1156Y2264D02*
Y2018D01*
X1206*
Y764D02*
Y464D01*
Y764D02*
X1156D01*
Y1060*
X1206*
X1256Y514D02*
Y164D01*
X1306*
X1256Y2264D02*
X1306D01*
X1256D02*
Y2764D01*
X1306*
X1256Y2264D02*
Y2018D01*
X1306*
Y764D02*
Y464D01*
Y764D02*
X1256D01*
Y1060*
X1306*
X1356Y2264D02*
X1406D01*
X1356D02*
Y2764D01*
X1406*
X1356Y2264D02*
Y2018D01*
X1406*
Y764D02*
Y464D01*
Y764D02*
X1356D01*
Y1060*
X1406*
X1456Y764D02*
X1506D01*
X1456D02*
Y1060D01*
X1506*
X1456Y764D02*
Y164D01*
X1406*
X1456Y2264D02*
X1506D01*
X1456D02*
Y2464D01*
X1406*
X1456Y2264D02*
Y2018D01*
X1506*
X1556Y764D02*
X1606D01*
X1556D02*
Y1060D01*
X1606*
X1556Y764D02*
Y164D01*
X1506*
X1556Y2264D02*
X1606D01*
X1556D02*
Y2464D01*
X1506*
X1556Y2264D02*
Y2018D01*
X1606*
Y614D02*
Y464D01*
X1656Y764D02*
X1706D01*
X1656D02*
Y1060D01*
X1706*
X1656Y764D02*
Y164D01*
X1606*
X1656Y2264D02*
X1706D01*
X1656D02*
Y2464D01*
X1606*
X1656Y2264D02*
Y2018D01*
X1706*
Y164D02*
X1756D01*
Y764*
X1806*
X1706Y314D02*
Y464D01*
Y2664D02*
Y2764D01*
X1756Y2264D02*
X1806D01*
X1756D02*
Y2018D01*
X1806*
X1756Y2264D02*
Y2464D01*
X1706*
X1756Y2714D02*
Y2514D01*
X1606*
Y2764*
X1806Y264D02*
Y164D01*
Y364D02*
Y464D01*
Y564D02*
Y464D01*
Y2464D02*
X1856D01*
Y1564*
X1806*
Y2664D02*
Y2764D01*
X1906Y514D02*
Y414D01*
X1956Y764D02*
X2056D01*
X1956D02*
Y164D01*
Y764D02*
Y1064D01*
Y2164D02*
Y2764D01*
X2056*
Y2264D02*
X2006D01*
Y2018*
X2056*
Y2264D02*
Y2464D01*
X2106Y2264D02*
X2156D01*
X2106D02*
Y2764D01*
X2156*
X2106Y2264D02*
Y2018D01*
X2156*
Y764D02*
Y464D01*
Y764D02*
X2106D01*
Y1060*
X2156*
X2206Y564D02*
Y164D01*
X2256*
X2206Y2264D02*
X2256D01*
X2206D02*
Y2764D01*
X2256*
X2206Y2264D02*
Y2018D01*
X2256*
Y764D02*
Y464D01*
Y764D02*
X2206D01*
Y1060*
X2256*
X2306Y2264D02*
X2356D01*
X2306D02*
Y2764D01*
X2356*
X2306Y2264D02*
Y2018D01*
X2356*
Y764D02*
Y464D01*
Y764D02*
X2306D01*
Y1060*
X2356*
X2406Y764D02*
X2456D01*
X2406D02*
Y1060D01*
X2456*
X2406Y764D02*
Y164D01*
X2356*
X2406Y2264D02*
X2456D01*
X2406D02*
Y2464D01*
X2356*
X2406Y2264D02*
Y2018D01*
X2456*
X2506Y764D02*
X2556D01*
X2506D02*
Y1060D01*
X2556*
X2506Y764D02*
Y164D01*
X2456*
X2506Y2264D02*
X2556D01*
X2506D02*
Y2464D01*
X2456*
X2506Y2264D02*
Y2018D01*
X2556*
Y2564D02*
Y2764D01*
X2606Y764D02*
X2656D01*
X2606D02*
Y1060D01*
X2656*
X2606Y764D02*
Y164D01*
X2556*
X2606Y2264D02*
X2656D01*
X2606D02*
Y2464D01*
X2556*
X2606Y2264D02*
Y2018D01*
X2656*
Y164D02*
X2706D01*
Y764*
X2756*
X2656Y314D02*
Y464D01*
Y614D02*
Y464D01*
Y2614D02*
Y2764D01*
Y2864*
X1706*
Y2764*
X2706Y914D02*
Y1364D01*
X2756Y264D02*
Y164D01*
Y364D02*
Y464D01*
Y964D02*
Y864D01*
Y2264D02*
Y2314D01*
X2656*
Y2464*
X2756D02*
X2806D01*
Y1564*
X2756*
X2806Y414D02*
Y914D01*
X2856Y764D02*
Y1060D01*
X2756*
X2906Y164D02*
Y864D01*
X3006*
X2906Y2314D02*
Y2164D01*
Y2314D02*
Y2764D01*
X3006*
Y464D02*
Y764D01*
Y864D02*
Y1060D01*
Y2264D02*
X2956D01*
Y2018*
X3006*
Y2264D02*
Y2464D01*
X3056Y2264D02*
X3106D01*
X3056D02*
Y2764D01*
X3106*
X3056Y2264D02*
Y2018D01*
X3106*
Y864D02*
X3056D01*
Y464*
X3106*
Y864D02*
Y1060D01*
X3156Y2264D02*
X3206D01*
X3156D02*
Y2764D01*
X3206*
X3156Y2264D02*
Y2018D01*
X3206*
Y864D02*
X3156D01*
Y464*
X3206*
Y864D02*
Y1060D01*
X3256Y2264D02*
X3306D01*
X3256D02*
Y2764D01*
X3306*
X3256Y2264D02*
Y2018D01*
X3306*
Y864D02*
X3256D01*
Y464*
X3306*
Y864D02*
Y1060D01*
X3356Y1864D02*
Y1664D01*
X3456*
Y1764*
X3356*
Y1864*
X3456*
Y1764*
X3356Y2264D02*
X3406D01*
X3356D02*
Y2464D01*
X3306*
X3356Y2264D02*
Y2018D01*
X3406*
Y314D02*
Y164D01*
Y864D02*
Y1060D01*
Y864D02*
X3356D01*
Y164*
X3306*
X3456Y914D02*
Y164D01*
X3506*
X3456Y2264D02*
X3506D01*
X3456D02*
Y2464D01*
X3406*
X3456Y2264D02*
Y2018D01*
X3506*
Y564D02*
Y464D01*
Y964D02*
Y864D01*
Y964D02*
Y1060D01*
X3556Y814D02*
Y1414D01*
Y2264D02*
X3606D01*
X3556D02*
Y2464D01*
X3506*
X3556Y2264D02*
Y2018D01*
X3606*
X3556Y2514D02*
X3506D01*
Y2764*
X3606Y614D02*
Y464D01*
Y1060D02*
Y864D01*
Y2464D02*
X3656D01*
Y2264*
X3706*
X3606Y2614D02*
Y2764D01*
X3656Y2214D02*
Y1264D01*
Y2514D02*
X3706D01*
Y2664*
Y364D02*
Y464D01*
X3856*
Y1264*
X3706Y864D02*
Y1060D01*
Y864D02*
X3656D01*
Y164*
X3606*
X3706Y2464D02*
X3856D01*
Y1664*
X3706Y2664D02*
Y2764D01*
X3756Y1139D02*
Y1364D01*
X3806*
Y1464*
X3856*
X3756Y1564D02*
X3856D01*
X3756D02*
Y2164D01*
X3706*
X3756Y1564D02*
Y1414D01*
X3806Y1314D02*
X3856D01*
Y1364*
X3806Y1614D02*
Y2414D01*
D02*
D70*
X206Y714D03*
X806Y2814D03*
X856Y264D03*
Y2364D03*
X956Y464D03*
Y1114D03*
Y2464D03*
X1106Y964D03*
X1806Y264D03*
X1956Y2164D03*
X2756Y264D03*
Y964D03*
X2906Y2164D03*
Y2314D03*
X3556Y814D03*
Y1414D03*
X3756D03*
X0Y0D02*
M02*
