%FSLAX23Y23*%
%MOIN*%
G04 EasyPC Gerber Version 18.0.6 Build 3620 *
%ADD19C,0.00500*%
%ADD18C,0.10000*%
X0Y0D02*
D02*
D18*
X156Y164D03*
Y464D03*
Y764D03*
Y864D03*
Y1060D03*
Y1514D03*
Y1564D03*
Y2018D03*
Y2164D03*
Y2264D03*
Y2464D03*
Y2764D03*
X206Y714D03*
X256Y164D03*
Y464D03*
Y764D03*
Y864D03*
Y1060D03*
Y1514D03*
Y1564D03*
Y2018D03*
Y2164D03*
Y2264D03*
Y2464D03*
Y2764D03*
X306Y614D03*
X356Y164D03*
Y464D03*
Y764D03*
Y864D03*
Y1060D03*
Y1514D03*
Y1564D03*
Y2018D03*
Y2164D03*
Y2264D03*
Y2464D03*
Y2764D03*
X397Y396D03*
X456Y164D03*
Y464D03*
Y764D03*
Y864D03*
Y1060D03*
Y1514D03*
Y1564D03*
Y2018D03*
Y2164D03*
Y2264D03*
Y2464D03*
Y2764D03*
X556Y164D03*
Y464D03*
Y764D03*
Y864D03*
Y1060D03*
Y1514D03*
Y1564D03*
Y2018D03*
Y2164D03*
Y2264D03*
Y2464D03*
Y2764D03*
X656Y164D03*
Y464D03*
Y764D03*
Y864D03*
Y1060D03*
Y1514D03*
Y1564D03*
Y2018D03*
Y2164D03*
Y2264D03*
Y2464D03*
Y2764D03*
X756Y164D03*
Y364D03*
Y464D03*
Y764D03*
Y864D03*
Y1060D03*
Y1514D03*
Y1564D03*
Y2018D03*
Y2164D03*
Y2264D03*
Y2464D03*
Y2664D03*
Y2764D03*
X806Y914D03*
Y2414D03*
Y2814D03*
X856Y164D03*
Y264D03*
Y464D03*
Y564D03*
Y764D03*
Y864D03*
Y964D03*
Y1060D03*
Y1514D03*
Y1564D03*
Y2018D03*
Y2164D03*
Y2264D03*
Y2364D03*
Y2464D03*
Y2764D03*
X956Y464D03*
Y1114D03*
Y2464D03*
X1006Y164D03*
Y764D03*
X1106Y164D03*
Y464D03*
Y764D03*
Y864D03*
Y964D03*
Y1060D03*
Y1514D03*
Y1564D03*
Y2018D03*
Y2164D03*
Y2264D03*
Y2464D03*
Y2764D03*
X1206Y164D03*
Y464D03*
Y764D03*
Y864D03*
Y1060D03*
Y1514D03*
Y1564D03*
Y2018D03*
Y2164D03*
Y2264D03*
Y2464D03*
Y2764D03*
X1256Y514D03*
X1306Y164D03*
Y464D03*
Y764D03*
Y864D03*
Y1060D03*
Y1514D03*
Y1564D03*
Y2018D03*
Y2164D03*
Y2264D03*
Y2464D03*
Y2764D03*
X1406Y164D03*
Y464D03*
Y764D03*
Y864D03*
Y1060D03*
Y1514D03*
Y1564D03*
Y2018D03*
Y2164D03*
Y2264D03*
Y2464D03*
Y2764D03*
X1506Y164D03*
Y464D03*
Y764D03*
Y864D03*
Y1060D03*
Y1514D03*
Y1564D03*
Y2018D03*
Y2164D03*
Y2264D03*
Y2464D03*
Y2764D03*
X1606Y164D03*
Y464D03*
Y614D03*
Y764D03*
Y864D03*
Y1060D03*
Y1514D03*
Y1564D03*
Y2018D03*
Y2164D03*
Y2264D03*
Y2464D03*
Y2764D03*
X1706Y164D03*
Y314D03*
Y464D03*
Y764D03*
Y864D03*
Y1060D03*
Y1514D03*
Y1564D03*
Y2018D03*
Y2164D03*
Y2264D03*
Y2464D03*
Y2664D03*
Y2764D03*
X1756Y2714D03*
X1806Y164D03*
Y264D03*
Y364D03*
Y464D03*
Y564D03*
Y764D03*
Y864D03*
Y1060D03*
Y1514D03*
Y1564D03*
Y2018D03*
Y2164D03*
Y2264D03*
Y2464D03*
Y2664D03*
Y2764D03*
X1906Y414D03*
Y514D03*
X1956Y164D03*
Y1064D03*
Y2164D03*
X2056Y164D03*
Y464D03*
Y764D03*
Y864D03*
Y1060D03*
Y1514D03*
Y1564D03*
Y2018D03*
Y2164D03*
Y2264D03*
Y2464D03*
Y2764D03*
X2156Y164D03*
Y464D03*
Y764D03*
Y864D03*
Y1060D03*
Y1514D03*
Y1564D03*
Y2018D03*
Y2164D03*
Y2264D03*
Y2464D03*
Y2764D03*
X2206Y564D03*
X2256Y164D03*
Y464D03*
Y764D03*
Y864D03*
Y1060D03*
Y1514D03*
Y1564D03*
Y2018D03*
Y2164D03*
Y2264D03*
Y2464D03*
Y2764D03*
X2356Y164D03*
Y464D03*
Y764D03*
Y864D03*
Y1060D03*
Y1514D03*
Y1564D03*
Y2018D03*
Y2164D03*
Y2264D03*
Y2464D03*
Y2764D03*
X2456Y164D03*
Y464D03*
Y764D03*
Y864D03*
Y1060D03*
Y1514D03*
Y1564D03*
Y2018D03*
Y2164D03*
Y2264D03*
Y2464D03*
Y2764D03*
X2556Y164D03*
Y464D03*
Y764D03*
Y864D03*
Y1060D03*
Y1514D03*
Y1564D03*
Y2018D03*
Y2164D03*
Y2264D03*
Y2464D03*
Y2564D03*
Y2764D03*
X2656Y164D03*
Y314D03*
Y464D03*
Y614D03*
Y764D03*
Y864D03*
Y1060D03*
Y1514D03*
Y1564D03*
Y2018D03*
Y2164D03*
Y2264D03*
Y2464D03*
Y2614D03*
Y2764D03*
X2706Y914D03*
Y1364D03*
X2756Y164D03*
Y264D03*
Y364D03*
Y464D03*
Y764D03*
Y864D03*
Y964D03*
Y1060D03*
Y1514D03*
Y1564D03*
Y2018D03*
Y2164D03*
Y2264D03*
Y2464D03*
Y2764D03*
X2806Y414D03*
Y914D03*
X2856Y764D03*
X2906Y164D03*
Y2164D03*
Y2314D03*
X3006Y164D03*
Y464D03*
Y764D03*
Y864D03*
Y1060D03*
Y1514D03*
Y1564D03*
Y2018D03*
Y2164D03*
Y2264D03*
Y2464D03*
Y2764D03*
X3106Y164D03*
Y464D03*
Y764D03*
Y864D03*
Y1060D03*
Y1514D03*
Y1564D03*
Y2018D03*
Y2164D03*
Y2264D03*
Y2464D03*
Y2764D03*
X3206Y164D03*
Y464D03*
Y764D03*
Y864D03*
Y1060D03*
Y1514D03*
Y1564D03*
Y2018D03*
Y2164D03*
Y2264D03*
Y2464D03*
Y2764D03*
X3306Y164D03*
Y464D03*
Y764D03*
Y864D03*
Y1060D03*
Y1514D03*
Y1564D03*
Y2018D03*
Y2164D03*
Y2264D03*
Y2464D03*
Y2764D03*
X3406Y164D03*
Y314D03*
Y464D03*
Y764D03*
Y864D03*
Y1060D03*
Y1514D03*
Y1564D03*
Y2018D03*
Y2164D03*
Y2264D03*
Y2464D03*
Y2764D03*
X3456Y914D03*
X3506Y164D03*
Y464D03*
Y564D03*
Y764D03*
Y864D03*
Y964D03*
Y1060D03*
Y1514D03*
Y1564D03*
Y2018D03*
Y2164D03*
Y2264D03*
Y2464D03*
Y2764D03*
X3556Y814D03*
Y1414D03*
Y2514D03*
X3606Y164D03*
Y464D03*
Y614D03*
Y764D03*
Y864D03*
Y1060D03*
Y1514D03*
Y1564D03*
Y2018D03*
Y2164D03*
Y2264D03*
Y2464D03*
Y2614D03*
Y2764D03*
X3656Y1264D03*
Y2214D03*
Y2514D03*
X3706Y164D03*
Y364D03*
Y464D03*
Y764D03*
Y864D03*
Y1060D03*
Y1514D03*
Y1564D03*
Y2018D03*
Y2164D03*
Y2264D03*
Y2464D03*
Y2664D03*
Y2764D03*
X3756Y1139D03*
Y1414D03*
X3806Y1314D03*
Y1614D03*
Y2414D03*
X3856Y1264D03*
Y1364D03*
Y1464D03*
Y1564D03*
Y1664D03*
D02*
D19*
X256Y223D02*
X272Y261D01*
X287Y223*
X262Y239D02*
X281D01*
X256Y523D02*
X272Y561D01*
X287Y523*
X262Y539D02*
X281D01*
X278Y842D02*
X284Y839D01*
X287Y833*
X284Y826*
X278Y823*
X256*
Y861*
X278*
X284Y858*
X287Y851*
X284Y845*
X278Y842*
X256*
X278Y942D02*
X284Y939D01*
X287Y933*
X284Y926*
X278Y923*
X256*
Y961*
X278*
X284Y958*
X287Y951*
X284Y945*
X278Y942*
X256*
X278Y1138D02*
X284Y1135D01*
X287Y1129*
X284Y1123*
X278Y1120*
X256*
Y1157*
X278*
X284Y1154*
X287Y1148*
X284Y1142*
X278Y1138*
X256*
X278Y1592D02*
X284Y1589D01*
X287Y1583*
X284Y1576*
X278Y1573*
X256*
Y1611*
X278*
X284Y1608*
X287Y1601*
X284Y1595*
X278Y1592*
X256*
X278Y1642D02*
X284Y1639D01*
X287Y1633*
X284Y1626*
X278Y1623*
X256*
Y1661*
X278*
X284Y1658*
X287Y1651*
X284Y1645*
X278Y1642*
X256*
X278Y2096D02*
X284Y2093D01*
X287Y2086*
X284Y2080*
X278Y2077*
X256*
Y2114*
X278*
X284Y2111*
X287Y2105*
X284Y2099*
X278Y2096*
X256*
X278Y2242D02*
X284Y2239D01*
X287Y2233*
X284Y2226*
X278Y2223*
X256*
Y2261*
X278*
X284Y2258*
X287Y2251*
X284Y2245*
X278Y2242*
X256*
X278Y2342D02*
X284Y2339D01*
X287Y2333*
X284Y2326*
X278Y2323*
X256*
Y2361*
X278*
X284Y2358*
X287Y2351*
X284Y2345*
X278Y2342*
X256*
Y2523D02*
X272Y2561D01*
X287Y2523*
X262Y2539D02*
X281D01*
X256Y2823D02*
X272Y2861D01*
X287Y2823*
X262Y2839D02*
X281D01*
X337Y780D02*
X334Y776D01*
X328Y773*
X319*
X312Y776*
X309Y780*
X306Y786*
Y798*
X309Y805*
X312Y808*
X319Y811*
X328*
X334Y808*
X337Y805*
X356Y223D02*
X372Y261D01*
X387Y223*
X362Y239D02*
X381D01*
X356Y523D02*
X372Y561D01*
X387Y523*
X362Y539D02*
X381D01*
X378Y842D02*
X384Y839D01*
X387Y833*
X384Y826*
X378Y823*
X356*
Y861*
X378*
X384Y858*
X387Y851*
X384Y845*
X378Y842*
X356*
X378Y942D02*
X384Y939D01*
X387Y933*
X384Y926*
X378Y923*
X356*
Y961*
X378*
X384Y958*
X387Y951*
X384Y945*
X378Y942*
X356*
X378Y1138D02*
X384Y1135D01*
X387Y1129*
X384Y1123*
X378Y1120*
X356*
Y1157*
X378*
X384Y1154*
X387Y1148*
X384Y1142*
X378Y1138*
X356*
X378Y1592D02*
X384Y1589D01*
X387Y1583*
X384Y1576*
X378Y1573*
X356*
Y1611*
X378*
X384Y1608*
X387Y1601*
X384Y1595*
X378Y1592*
X356*
X378Y1642D02*
X384Y1639D01*
X387Y1633*
X384Y1626*
X378Y1623*
X356*
Y1661*
X378*
X384Y1658*
X387Y1651*
X384Y1645*
X378Y1642*
X356*
X378Y2096D02*
X384Y2093D01*
X387Y2086*
X384Y2080*
X378Y2077*
X356*
Y2114*
X378*
X384Y2111*
X387Y2105*
X384Y2099*
X378Y2096*
X356*
X378Y2242D02*
X384Y2239D01*
X387Y2233*
X384Y2226*
X378Y2223*
X356*
Y2261*
X378*
X384Y2258*
X387Y2251*
X384Y2245*
X378Y2242*
X356*
X378Y2342D02*
X384Y2339D01*
X387Y2333*
X384Y2326*
X378Y2323*
X356*
Y2361*
X378*
X384Y2358*
X387Y2351*
X384Y2345*
X378Y2342*
X356*
Y2523D02*
X372Y2561D01*
X387Y2523*
X362Y2539D02*
X381D01*
X356Y2823D02*
X372Y2861D01*
X387Y2823*
X362Y2839D02*
X381D01*
X406Y673D02*
Y711D01*
X425*
X431Y708*
X434Y705*
X437Y698*
Y686*
X434Y680*
X431Y676*
X425Y673*
X406*
X456Y223D02*
X472Y261D01*
X487Y223*
X462Y239D02*
X481D01*
X456Y523D02*
X472Y561D01*
X487Y523*
X462Y539D02*
X481D01*
X478Y842D02*
X484Y839D01*
X487Y833*
X484Y826*
X478Y823*
X456*
Y861*
X478*
X484Y858*
X487Y851*
X484Y845*
X478Y842*
X456*
X478Y942D02*
X484Y939D01*
X487Y933*
X484Y926*
X478Y923*
X456*
Y961*
X478*
X484Y958*
X487Y951*
X484Y945*
X478Y942*
X456*
X478Y1138D02*
X484Y1135D01*
X487Y1129*
X484Y1123*
X478Y1120*
X456*
Y1157*
X478*
X484Y1154*
X487Y1148*
X484Y1142*
X478Y1138*
X456*
X478Y1592D02*
X484Y1589D01*
X487Y1583*
X484Y1576*
X478Y1573*
X456*
Y1611*
X478*
X484Y1608*
X487Y1601*
X484Y1595*
X478Y1592*
X456*
X478Y1642D02*
X484Y1639D01*
X487Y1633*
X484Y1626*
X478Y1623*
X456*
Y1661*
X478*
X484Y1658*
X487Y1651*
X484Y1645*
X478Y1642*
X456*
X478Y2096D02*
X484Y2093D01*
X487Y2086*
X484Y2080*
X478Y2077*
X456*
Y2114*
X478*
X484Y2111*
X487Y2105*
X484Y2099*
X478Y2096*
X456*
X478Y2242D02*
X484Y2239D01*
X487Y2233*
X484Y2226*
X478Y2223*
X456*
Y2261*
X478*
X484Y2258*
X487Y2251*
X484Y2245*
X478Y2242*
X456*
X478Y2342D02*
X484Y2339D01*
X487Y2333*
X484Y2326*
X478Y2323*
X456*
Y2361*
X478*
X484Y2358*
X487Y2351*
X484Y2345*
X478Y2342*
X456*
Y2523D02*
X472Y2561D01*
X487Y2523*
X462Y2539D02*
X481D01*
X456Y2823D02*
X472Y2861D01*
X487Y2823*
X462Y2839D02*
X481D01*
X497Y456D02*
Y493D01*
X515*
X522Y490*
X525Y487*
X528Y481*
Y468*
X525Y462*
X522Y459*
X515Y456*
X497*
X556Y223D02*
X572Y261D01*
X587Y223*
X562Y239D02*
X581D01*
X556Y523D02*
X572Y561D01*
X587Y523*
X562Y539D02*
X581D01*
X578Y842D02*
X584Y839D01*
X587Y833*
X584Y826*
X578Y823*
X556*
Y861*
X578*
X584Y858*
X587Y851*
X584Y845*
X578Y842*
X556*
X578Y942D02*
X584Y939D01*
X587Y933*
X584Y926*
X578Y923*
X556*
Y961*
X578*
X584Y958*
X587Y951*
X584Y945*
X578Y942*
X556*
X578Y1138D02*
X584Y1135D01*
X587Y1129*
X584Y1123*
X578Y1120*
X556*
Y1157*
X578*
X584Y1154*
X587Y1148*
X584Y1142*
X578Y1138*
X556*
X578Y1592D02*
X584Y1589D01*
X587Y1583*
X584Y1576*
X578Y1573*
X556*
Y1611*
X578*
X584Y1608*
X587Y1601*
X584Y1595*
X578Y1592*
X556*
X578Y1642D02*
X584Y1639D01*
X587Y1633*
X584Y1626*
X578Y1623*
X556*
Y1661*
X578*
X584Y1658*
X587Y1651*
X584Y1645*
X578Y1642*
X556*
X578Y2096D02*
X584Y2093D01*
X587Y2086*
X584Y2080*
X578Y2077*
X556*
Y2114*
X578*
X584Y2111*
X587Y2105*
X584Y2099*
X578Y2096*
X556*
X578Y2242D02*
X584Y2239D01*
X587Y2233*
X584Y2226*
X578Y2223*
X556*
Y2261*
X578*
X584Y2258*
X587Y2251*
X584Y2245*
X578Y2242*
X556*
X578Y2342D02*
X584Y2339D01*
X587Y2333*
X584Y2326*
X578Y2323*
X556*
Y2361*
X578*
X584Y2358*
X587Y2351*
X584Y2345*
X578Y2342*
X556*
Y2523D02*
X572Y2561D01*
X587Y2523*
X562Y2539D02*
X581D01*
X556Y2823D02*
X572Y2861D01*
X587Y2823*
X562Y2839D02*
X581D01*
X656Y223D02*
X672Y261D01*
X687Y223*
X662Y239D02*
X681D01*
X656Y523D02*
X672Y561D01*
X687Y523*
X662Y539D02*
X681D01*
X678Y842D02*
X684Y839D01*
X687Y833*
X684Y826*
X678Y823*
X656*
Y861*
X678*
X684Y858*
X687Y851*
X684Y845*
X678Y842*
X656*
X678Y942D02*
X684Y939D01*
X687Y933*
X684Y926*
X678Y923*
X656*
Y961*
X678*
X684Y958*
X687Y951*
X684Y945*
X678Y942*
X656*
X678Y1138D02*
X684Y1135D01*
X687Y1129*
X684Y1123*
X678Y1120*
X656*
Y1157*
X678*
X684Y1154*
X687Y1148*
X684Y1142*
X678Y1138*
X656*
X678Y1592D02*
X684Y1589D01*
X687Y1583*
X684Y1576*
X678Y1573*
X656*
Y1611*
X678*
X684Y1608*
X687Y1601*
X684Y1595*
X678Y1592*
X656*
X678Y1642D02*
X684Y1639D01*
X687Y1633*
X684Y1626*
X678Y1623*
X656*
Y1661*
X678*
X684Y1658*
X687Y1651*
X684Y1645*
X678Y1642*
X656*
X678Y2096D02*
X684Y2093D01*
X687Y2086*
X684Y2080*
X678Y2077*
X656*
Y2114*
X678*
X684Y2111*
X687Y2105*
X684Y2099*
X678Y2096*
X656*
X678Y2242D02*
X684Y2239D01*
X687Y2233*
X684Y2226*
X678Y2223*
X656*
Y2261*
X678*
X684Y2258*
X687Y2251*
X684Y2245*
X678Y2242*
X656*
X678Y2342D02*
X684Y2339D01*
X687Y2333*
X684Y2326*
X678Y2323*
X656*
Y2361*
X678*
X684Y2358*
X687Y2351*
X684Y2345*
X678Y2342*
X656*
Y2523D02*
X672Y2561D01*
X687Y2523*
X662Y2539D02*
X681D01*
X656Y2823D02*
X672Y2861D01*
X687Y2823*
X662Y2839D02*
X681D01*
X756Y223D02*
X772Y261D01*
X787Y223*
X762Y239D02*
X781D01*
X756Y523D02*
X772Y561D01*
X787Y523*
X762Y539D02*
X781D01*
X778Y842D02*
X784Y839D01*
X787Y833*
X784Y826*
X778Y823*
X756*
Y861*
X778*
X784Y858*
X787Y851*
X784Y845*
X778Y842*
X756*
X778Y942D02*
X784Y939D01*
X787Y933*
X784Y926*
X778Y923*
X756*
Y961*
X778*
X784Y958*
X787Y951*
X784Y945*
X778Y942*
X756*
X778Y1138D02*
X784Y1135D01*
X787Y1129*
X784Y1123*
X778Y1120*
X756*
Y1157*
X778*
X784Y1154*
X787Y1148*
X784Y1142*
X778Y1138*
X756*
X778Y1592D02*
X784Y1589D01*
X787Y1583*
X784Y1576*
X778Y1573*
X756*
Y1611*
X778*
X784Y1608*
X787Y1601*
X784Y1595*
X778Y1592*
X756*
X778Y1642D02*
X784Y1639D01*
X787Y1633*
X784Y1626*
X778Y1623*
X756*
Y1661*
X778*
X784Y1658*
X787Y1651*
X784Y1645*
X778Y1642*
X756*
X778Y2096D02*
X784Y2093D01*
X787Y2086*
X784Y2080*
X778Y2077*
X756*
Y2114*
X778*
X784Y2111*
X787Y2105*
X784Y2099*
X778Y2096*
X756*
X778Y2242D02*
X784Y2239D01*
X787Y2233*
X784Y2226*
X778Y2223*
X756*
Y2261*
X778*
X784Y2258*
X787Y2251*
X784Y2245*
X778Y2242*
X756*
X778Y2342D02*
X784Y2339D01*
X787Y2333*
X784Y2326*
X778Y2323*
X756*
Y2361*
X778*
X784Y2358*
X787Y2351*
X784Y2345*
X778Y2342*
X756*
Y2523D02*
X772Y2561D01*
X787Y2523*
X762Y2539D02*
X781D01*
X756Y2823D02*
X772Y2861D01*
X787Y2823*
X762Y2839D02*
X781D01*
X856Y223D02*
X872Y261D01*
X887Y223*
X862Y239D02*
X881D01*
X856Y423D02*
Y461D01*
X875*
X881Y458*
X884Y455*
X887Y448*
Y436*
X884Y430*
X881Y426*
X875Y423*
X856*
Y523D02*
X872Y561D01*
X887Y523*
X862Y539D02*
X881D01*
X878Y842D02*
X884Y839D01*
X887Y833*
X884Y826*
X878Y823*
X856*
Y861*
X878*
X884Y858*
X887Y851*
X884Y845*
X878Y842*
X856*
X878Y942D02*
X884Y939D01*
X887Y933*
X884Y926*
X878Y923*
X856*
Y961*
X878*
X884Y958*
X887Y951*
X884Y945*
X878Y942*
X856*
X878Y1138D02*
X884Y1135D01*
X887Y1129*
X884Y1123*
X878Y1120*
X856*
Y1157*
X878*
X884Y1154*
X887Y1148*
X884Y1142*
X878Y1138*
X856*
X878Y1592D02*
X884Y1589D01*
X887Y1583*
X884Y1576*
X878Y1573*
X856*
Y1611*
X878*
X884Y1608*
X887Y1601*
X884Y1595*
X878Y1592*
X856*
X878Y1642D02*
X884Y1639D01*
X887Y1633*
X884Y1626*
X878Y1623*
X856*
Y1661*
X878*
X884Y1658*
X887Y1651*
X884Y1645*
X878Y1642*
X856*
X878Y2096D02*
X884Y2093D01*
X887Y2086*
X884Y2080*
X878Y2077*
X856*
Y2114*
X878*
X884Y2111*
X887Y2105*
X884Y2099*
X878Y2096*
X856*
X878Y2242D02*
X884Y2239D01*
X887Y2233*
X884Y2226*
X878Y2223*
X856*
Y2261*
X878*
X884Y2258*
X887Y2251*
X884Y2245*
X878Y2242*
X856*
X878Y2342D02*
X884Y2339D01*
X887Y2333*
X884Y2326*
X878Y2323*
X856*
Y2361*
X878*
X884Y2358*
X887Y2351*
X884Y2345*
X878Y2342*
X856*
Y2523D02*
X872Y2561D01*
X887Y2523*
X862Y2539D02*
X881D01*
X856Y2723D02*
Y2761D01*
X875*
X881Y2758*
X884Y2755*
X887Y2748*
Y2736*
X884Y2730*
X881Y2726*
X875Y2723*
X856*
Y2823D02*
X872Y2861D01*
X887Y2823*
X862Y2839D02*
X881D01*
X906Y973D02*
Y1011D01*
X925*
X931Y1008*
X934Y1005*
X937Y998*
Y986*
X934Y980*
X931Y976*
X925Y973*
X906*
Y2473D02*
Y2511D01*
X925*
X931Y2508*
X934Y2505*
X937Y2498*
Y2486*
X934Y2480*
X931Y2476*
X925Y2473*
X906*
X937Y2880D02*
X934Y2876D01*
X928Y2873*
X919*
X912Y2876*
X909Y2880*
X906Y2886*
Y2898*
X909Y2905*
X912Y2908*
X919Y2911*
X928*
X934Y2908*
X937Y2905*
X956Y223D02*
X972Y261D01*
X987Y223*
X962Y239D02*
X981D01*
X987Y330D02*
X984Y326D01*
X978Y323*
X969*
X962Y326*
X959Y330*
X956Y336*
Y348*
X959Y355*
X962Y358*
X969Y361*
X978*
X984Y358*
X987Y355*
X956Y523D02*
X972Y561D01*
X987Y523*
X962Y539D02*
X981D01*
X956Y623D02*
Y661D01*
X975*
X981Y658*
X984Y655*
X987Y648*
Y636*
X984Y630*
X981Y626*
X975Y623*
X956*
X978Y842D02*
X984Y839D01*
X987Y833*
X984Y826*
X978Y823*
X956*
Y861*
X978*
X984Y858*
X987Y851*
X984Y845*
X978Y842*
X956*
X978Y942D02*
X984Y939D01*
X987Y933*
X984Y926*
X978Y923*
X956*
Y961*
X978*
X984Y958*
X987Y951*
X984Y945*
X978Y942*
X956*
Y1023D02*
Y1061D01*
X975*
X981Y1058*
X984Y1055*
X987Y1048*
Y1036*
X984Y1030*
X981Y1026*
X975Y1023*
X956*
X978Y1138D02*
X984Y1135D01*
X987Y1129*
X984Y1123*
X978Y1120*
X956*
Y1157*
X978*
X984Y1154*
X987Y1148*
X984Y1142*
X978Y1138*
X956*
X978Y1592D02*
X984Y1589D01*
X987Y1583*
X984Y1576*
X978Y1573*
X956*
Y1611*
X978*
X984Y1608*
X987Y1601*
X984Y1595*
X978Y1592*
X956*
X978Y1642D02*
X984Y1639D01*
X987Y1633*
X984Y1626*
X978Y1623*
X956*
Y1661*
X978*
X984Y1658*
X987Y1651*
X984Y1645*
X978Y1642*
X956*
X978Y2096D02*
X984Y2093D01*
X987Y2086*
X984Y2080*
X978Y2077*
X956*
Y2114*
X978*
X984Y2111*
X987Y2105*
X984Y2099*
X978Y2096*
X956*
X978Y2242D02*
X984Y2239D01*
X987Y2233*
X984Y2226*
X978Y2223*
X956*
Y2261*
X978*
X984Y2258*
X987Y2251*
X984Y2245*
X978Y2242*
X956*
X978Y2342D02*
X984Y2339D01*
X987Y2333*
X984Y2326*
X978Y2323*
X956*
Y2361*
X978*
X984Y2358*
X987Y2351*
X984Y2345*
X978Y2342*
X956*
X987Y2430D02*
X984Y2426D01*
X978Y2423*
X969*
X962Y2426*
X959Y2430*
X956Y2436*
Y2448*
X959Y2455*
X962Y2458*
X969Y2461*
X978*
X984Y2458*
X987Y2455*
X956Y2523D02*
X972Y2561D01*
X987Y2523*
X962Y2539D02*
X981D01*
X956Y2823D02*
X972Y2861D01*
X987Y2823*
X962Y2839D02*
X981D01*
X1087Y530D02*
X1084Y526D01*
X1078Y523*
X1069*
X1062Y526*
X1059Y530*
X1056Y536*
Y548*
X1059Y555*
X1062Y558*
X1069Y561*
X1078*
X1084Y558*
X1087Y555*
Y1180D02*
X1084Y1176D01*
X1078Y1173*
X1069*
X1062Y1176*
X1059Y1180*
X1056Y1186*
Y1198*
X1059Y1205*
X1062Y1208*
X1069Y1211*
X1078*
X1084Y1208*
X1087Y1205*
Y2530D02*
X1084Y2526D01*
X1078Y2523*
X1069*
X1062Y2526*
X1059Y2530*
X1056Y2536*
Y2548*
X1059Y2555*
X1062Y2558*
X1069Y2561*
X1078*
X1084Y2558*
X1087Y2555*
X1106Y223D02*
Y261D01*
X1125*
X1131Y258*
X1134Y255*
X1137Y248*
Y236*
X1134Y230*
X1131Y226*
X1125Y223*
X1106*
Y823D02*
Y861D01*
X1125*
X1131Y858*
X1134Y855*
X1137Y848*
Y836*
X1134Y830*
X1131Y826*
X1125Y823*
X1106*
X1206Y223D02*
X1222Y261D01*
X1237Y223*
X1212Y239D02*
X1231D01*
X1206Y523D02*
X1222Y561D01*
X1237Y523*
X1212Y539D02*
X1231D01*
X1228Y842D02*
X1234Y839D01*
X1237Y833*
X1234Y826*
X1228Y823*
X1206*
Y861*
X1228*
X1234Y858*
X1237Y851*
X1234Y845*
X1228Y842*
X1206*
X1228Y942D02*
X1234Y939D01*
X1237Y933*
X1234Y926*
X1228Y923*
X1206*
Y961*
X1228*
X1234Y958*
X1237Y951*
X1234Y945*
X1228Y942*
X1206*
X1237Y1030D02*
X1234Y1026D01*
X1228Y1023*
X1219*
X1212Y1026*
X1209Y1030*
X1206Y1036*
Y1048*
X1209Y1055*
X1212Y1058*
X1219Y1061*
X1228*
X1234Y1058*
X1237Y1055*
X1228Y1138D02*
X1234Y1135D01*
X1237Y1129*
X1234Y1123*
X1228Y1120*
X1206*
Y1157*
X1228*
X1234Y1154*
X1237Y1148*
X1234Y1142*
X1228Y1138*
X1206*
X1228Y1592D02*
X1234Y1589D01*
X1237Y1583*
X1234Y1576*
X1228Y1573*
X1206*
Y1611*
X1228*
X1234Y1608*
X1237Y1601*
X1234Y1595*
X1228Y1592*
X1206*
X1228Y1642D02*
X1234Y1639D01*
X1237Y1633*
X1234Y1626*
X1228Y1623*
X1206*
Y1661*
X1228*
X1234Y1658*
X1237Y1651*
X1234Y1645*
X1228Y1642*
X1206*
X1228Y2096D02*
X1234Y2093D01*
X1237Y2086*
X1234Y2080*
X1228Y2077*
X1206*
Y2114*
X1228*
X1234Y2111*
X1237Y2105*
X1234Y2099*
X1228Y2096*
X1206*
X1228Y2242D02*
X1234Y2239D01*
X1237Y2233*
X1234Y2226*
X1228Y2223*
X1206*
Y2261*
X1228*
X1234Y2258*
X1237Y2251*
X1234Y2245*
X1228Y2242*
X1206*
X1228Y2342D02*
X1234Y2339D01*
X1237Y2333*
X1234Y2326*
X1228Y2323*
X1206*
Y2361*
X1228*
X1234Y2358*
X1237Y2351*
X1234Y2345*
X1228Y2342*
X1206*
Y2523D02*
X1222Y2561D01*
X1237Y2523*
X1212Y2539D02*
X1231D01*
X1206Y2823D02*
X1222Y2861D01*
X1237Y2823*
X1212Y2839D02*
X1231D01*
X1306Y223D02*
X1322Y261D01*
X1337Y223*
X1312Y239D02*
X1331D01*
X1306Y523D02*
X1322Y561D01*
X1337Y523*
X1312Y539D02*
X1331D01*
X1328Y842D02*
X1334Y839D01*
X1337Y833*
X1334Y826*
X1328Y823*
X1306*
Y861*
X1328*
X1334Y858*
X1337Y851*
X1334Y845*
X1328Y842*
X1306*
X1328Y942D02*
X1334Y939D01*
X1337Y933*
X1334Y926*
X1328Y923*
X1306*
Y961*
X1328*
X1334Y958*
X1337Y951*
X1334Y945*
X1328Y942*
X1306*
X1328Y1138D02*
X1334Y1135D01*
X1337Y1129*
X1334Y1123*
X1328Y1120*
X1306*
Y1157*
X1328*
X1334Y1154*
X1337Y1148*
X1334Y1142*
X1328Y1138*
X1306*
X1328Y1592D02*
X1334Y1589D01*
X1337Y1583*
X1334Y1576*
X1328Y1573*
X1306*
Y1611*
X1328*
X1334Y1608*
X1337Y1601*
X1334Y1595*
X1328Y1592*
X1306*
X1328Y1642D02*
X1334Y1639D01*
X1337Y1633*
X1334Y1626*
X1328Y1623*
X1306*
Y1661*
X1328*
X1334Y1658*
X1337Y1651*
X1334Y1645*
X1328Y1642*
X1306*
X1328Y2096D02*
X1334Y2093D01*
X1337Y2086*
X1334Y2080*
X1328Y2077*
X1306*
Y2114*
X1328*
X1334Y2111*
X1337Y2105*
X1334Y2099*
X1328Y2096*
X1306*
X1328Y2242D02*
X1334Y2239D01*
X1337Y2233*
X1334Y2226*
X1328Y2223*
X1306*
Y2261*
X1328*
X1334Y2258*
X1337Y2251*
X1334Y2245*
X1328Y2242*
X1306*
X1328Y2342D02*
X1334Y2339D01*
X1337Y2333*
X1334Y2326*
X1328Y2323*
X1306*
Y2361*
X1328*
X1334Y2358*
X1337Y2351*
X1334Y2345*
X1328Y2342*
X1306*
Y2523D02*
X1322Y2561D01*
X1337Y2523*
X1312Y2539D02*
X1331D01*
X1306Y2823D02*
X1322Y2861D01*
X1337Y2823*
X1312Y2839D02*
X1331D01*
X1356Y573D02*
Y611D01*
X1375*
X1381Y608*
X1384Y605*
X1387Y598*
Y586*
X1384Y580*
X1381Y576*
X1375Y573*
X1356*
X1406Y223D02*
X1422Y261D01*
X1437Y223*
X1412Y239D02*
X1431D01*
X1406Y523D02*
X1422Y561D01*
X1437Y523*
X1412Y539D02*
X1431D01*
X1428Y842D02*
X1434Y839D01*
X1437Y833*
X1434Y826*
X1428Y823*
X1406*
Y861*
X1428*
X1434Y858*
X1437Y851*
X1434Y845*
X1428Y842*
X1406*
X1428Y942D02*
X1434Y939D01*
X1437Y933*
X1434Y926*
X1428Y923*
X1406*
Y961*
X1428*
X1434Y958*
X1437Y951*
X1434Y945*
X1428Y942*
X1406*
X1428Y1138D02*
X1434Y1135D01*
X1437Y1129*
X1434Y1123*
X1428Y1120*
X1406*
Y1157*
X1428*
X1434Y1154*
X1437Y1148*
X1434Y1142*
X1428Y1138*
X1406*
X1428Y1592D02*
X1434Y1589D01*
X1437Y1583*
X1434Y1576*
X1428Y1573*
X1406*
Y1611*
X1428*
X1434Y1608*
X1437Y1601*
X1434Y1595*
X1428Y1592*
X1406*
X1428Y1642D02*
X1434Y1639D01*
X1437Y1633*
X1434Y1626*
X1428Y1623*
X1406*
Y1661*
X1428*
X1434Y1658*
X1437Y1651*
X1434Y1645*
X1428Y1642*
X1406*
X1428Y2096D02*
X1434Y2093D01*
X1437Y2086*
X1434Y2080*
X1428Y2077*
X1406*
Y2114*
X1428*
X1434Y2111*
X1437Y2105*
X1434Y2099*
X1428Y2096*
X1406*
X1428Y2242D02*
X1434Y2239D01*
X1437Y2233*
X1434Y2226*
X1428Y2223*
X1406*
Y2261*
X1428*
X1434Y2258*
X1437Y2251*
X1434Y2245*
X1428Y2242*
X1406*
X1428Y2342D02*
X1434Y2339D01*
X1437Y2333*
X1434Y2326*
X1428Y2323*
X1406*
Y2361*
X1428*
X1434Y2358*
X1437Y2351*
X1434Y2345*
X1428Y2342*
X1406*
Y2523D02*
X1422Y2561D01*
X1437Y2523*
X1412Y2539D02*
X1431D01*
X1406Y2823D02*
X1422Y2861D01*
X1437Y2823*
X1412Y2839D02*
X1431D01*
X1506Y223D02*
X1522Y261D01*
X1537Y223*
X1512Y239D02*
X1531D01*
X1506Y523D02*
X1522Y561D01*
X1537Y523*
X1512Y539D02*
X1531D01*
X1528Y842D02*
X1534Y839D01*
X1537Y833*
X1534Y826*
X1528Y823*
X1506*
Y861*
X1528*
X1534Y858*
X1537Y851*
X1534Y845*
X1528Y842*
X1506*
X1528Y942D02*
X1534Y939D01*
X1537Y933*
X1534Y926*
X1528Y923*
X1506*
Y961*
X1528*
X1534Y958*
X1537Y951*
X1534Y945*
X1528Y942*
X1506*
X1528Y1138D02*
X1534Y1135D01*
X1537Y1129*
X1534Y1123*
X1528Y1120*
X1506*
Y1157*
X1528*
X1534Y1154*
X1537Y1148*
X1534Y1142*
X1528Y1138*
X1506*
X1528Y1592D02*
X1534Y1589D01*
X1537Y1583*
X1534Y1576*
X1528Y1573*
X1506*
Y1611*
X1528*
X1534Y1608*
X1537Y1601*
X1534Y1595*
X1528Y1592*
X1506*
X1528Y1642D02*
X1534Y1639D01*
X1537Y1633*
X1534Y1626*
X1528Y1623*
X1506*
Y1661*
X1528*
X1534Y1658*
X1537Y1651*
X1534Y1645*
X1528Y1642*
X1506*
X1528Y2096D02*
X1534Y2093D01*
X1537Y2086*
X1534Y2080*
X1528Y2077*
X1506*
Y2114*
X1528*
X1534Y2111*
X1537Y2105*
X1534Y2099*
X1528Y2096*
X1506*
X1528Y2242D02*
X1534Y2239D01*
X1537Y2233*
X1534Y2226*
X1528Y2223*
X1506*
Y2261*
X1528*
X1534Y2258*
X1537Y2251*
X1534Y2245*
X1528Y2242*
X1506*
X1528Y2342D02*
X1534Y2339D01*
X1537Y2333*
X1534Y2326*
X1528Y2323*
X1506*
Y2361*
X1528*
X1534Y2358*
X1537Y2351*
X1534Y2345*
X1528Y2342*
X1506*
Y2523D02*
X1522Y2561D01*
X1537Y2523*
X1512Y2539D02*
X1531D01*
X1506Y2823D02*
X1522Y2861D01*
X1537Y2823*
X1512Y2839D02*
X1531D01*
X1606Y223D02*
X1622Y261D01*
X1637Y223*
X1612Y239D02*
X1631D01*
X1606Y523D02*
X1622Y561D01*
X1637Y523*
X1612Y539D02*
X1631D01*
X1628Y842D02*
X1634Y839D01*
X1637Y833*
X1634Y826*
X1628Y823*
X1606*
Y861*
X1628*
X1634Y858*
X1637Y851*
X1634Y845*
X1628Y842*
X1606*
X1628Y942D02*
X1634Y939D01*
X1637Y933*
X1634Y926*
X1628Y923*
X1606*
Y961*
X1628*
X1634Y958*
X1637Y951*
X1634Y945*
X1628Y942*
X1606*
X1628Y1138D02*
X1634Y1135D01*
X1637Y1129*
X1634Y1123*
X1628Y1120*
X1606*
Y1157*
X1628*
X1634Y1154*
X1637Y1148*
X1634Y1142*
X1628Y1138*
X1606*
X1628Y1592D02*
X1634Y1589D01*
X1637Y1583*
X1634Y1576*
X1628Y1573*
X1606*
Y1611*
X1628*
X1634Y1608*
X1637Y1601*
X1634Y1595*
X1628Y1592*
X1606*
X1628Y1642D02*
X1634Y1639D01*
X1637Y1633*
X1634Y1626*
X1628Y1623*
X1606*
Y1661*
X1628*
X1634Y1658*
X1637Y1651*
X1634Y1645*
X1628Y1642*
X1606*
X1628Y2096D02*
X1634Y2093D01*
X1637Y2086*
X1634Y2080*
X1628Y2077*
X1606*
Y2114*
X1628*
X1634Y2111*
X1637Y2105*
X1634Y2099*
X1628Y2096*
X1606*
X1628Y2242D02*
X1634Y2239D01*
X1637Y2233*
X1634Y2226*
X1628Y2223*
X1606*
Y2261*
X1628*
X1634Y2258*
X1637Y2251*
X1634Y2245*
X1628Y2242*
X1606*
X1628Y2342D02*
X1634Y2339D01*
X1637Y2333*
X1634Y2326*
X1628Y2323*
X1606*
Y2361*
X1628*
X1634Y2358*
X1637Y2351*
X1634Y2345*
X1628Y2342*
X1606*
Y2523D02*
X1622Y2561D01*
X1637Y2523*
X1612Y2539D02*
X1631D01*
X1606Y2823D02*
X1622Y2861D01*
X1637Y2823*
X1612Y2839D02*
X1631D01*
X1706Y223D02*
X1722Y261D01*
X1737Y223*
X1712Y239D02*
X1731D01*
X1706Y523D02*
X1722Y561D01*
X1737Y523*
X1712Y539D02*
X1731D01*
X1706Y673D02*
Y711D01*
X1725*
X1731Y708*
X1734Y705*
X1737Y698*
Y686*
X1734Y680*
X1731Y676*
X1725Y673*
X1706*
X1728Y842D02*
X1734Y839D01*
X1737Y833*
X1734Y826*
X1728Y823*
X1706*
Y861*
X1728*
X1734Y858*
X1737Y851*
X1734Y845*
X1728Y842*
X1706*
X1728Y942D02*
X1734Y939D01*
X1737Y933*
X1734Y926*
X1728Y923*
X1706*
Y961*
X1728*
X1734Y958*
X1737Y951*
X1734Y945*
X1728Y942*
X1706*
X1728Y1138D02*
X1734Y1135D01*
X1737Y1129*
X1734Y1123*
X1728Y1120*
X1706*
Y1157*
X1728*
X1734Y1154*
X1737Y1148*
X1734Y1142*
X1728Y1138*
X1706*
X1728Y1592D02*
X1734Y1589D01*
X1737Y1583*
X1734Y1576*
X1728Y1573*
X1706*
Y1611*
X1728*
X1734Y1608*
X1737Y1601*
X1734Y1595*
X1728Y1592*
X1706*
X1728Y1642D02*
X1734Y1639D01*
X1737Y1633*
X1734Y1626*
X1728Y1623*
X1706*
Y1661*
X1728*
X1734Y1658*
X1737Y1651*
X1734Y1645*
X1728Y1642*
X1706*
X1728Y2096D02*
X1734Y2093D01*
X1737Y2086*
X1734Y2080*
X1728Y2077*
X1706*
Y2114*
X1728*
X1734Y2111*
X1737Y2105*
X1734Y2099*
X1728Y2096*
X1706*
X1728Y2242D02*
X1734Y2239D01*
X1737Y2233*
X1734Y2226*
X1728Y2223*
X1706*
Y2261*
X1728*
X1734Y2258*
X1737Y2251*
X1734Y2245*
X1728Y2242*
X1706*
X1728Y2342D02*
X1734Y2339D01*
X1737Y2333*
X1734Y2326*
X1728Y2323*
X1706*
Y2361*
X1728*
X1734Y2358*
X1737Y2351*
X1734Y2345*
X1728Y2342*
X1706*
Y2523D02*
X1722Y2561D01*
X1737Y2523*
X1712Y2539D02*
X1731D01*
X1706Y2823D02*
X1722Y2861D01*
X1737Y2823*
X1712Y2839D02*
X1731D01*
X1806Y223D02*
X1822Y261D01*
X1837Y223*
X1812Y239D02*
X1831D01*
X1806Y373D02*
Y411D01*
X1825*
X1831Y408*
X1834Y405*
X1837Y398*
Y386*
X1834Y380*
X1831Y376*
X1825Y373*
X1806*
Y523D02*
X1822Y561D01*
X1837Y523*
X1812Y539D02*
X1831D01*
X1828Y842D02*
X1834Y839D01*
X1837Y833*
X1834Y826*
X1828Y823*
X1806*
Y861*
X1828*
X1834Y858*
X1837Y851*
X1834Y845*
X1828Y842*
X1806*
X1828Y942D02*
X1834Y939D01*
X1837Y933*
X1834Y926*
X1828Y923*
X1806*
Y961*
X1828*
X1834Y958*
X1837Y951*
X1834Y945*
X1828Y942*
X1806*
X1828Y1138D02*
X1834Y1135D01*
X1837Y1129*
X1834Y1123*
X1828Y1120*
X1806*
Y1157*
X1828*
X1834Y1154*
X1837Y1148*
X1834Y1142*
X1828Y1138*
X1806*
X1828Y1592D02*
X1834Y1589D01*
X1837Y1583*
X1834Y1576*
X1828Y1573*
X1806*
Y1611*
X1828*
X1834Y1608*
X1837Y1601*
X1834Y1595*
X1828Y1592*
X1806*
X1828Y1642D02*
X1834Y1639D01*
X1837Y1633*
X1834Y1626*
X1828Y1623*
X1806*
Y1661*
X1828*
X1834Y1658*
X1837Y1651*
X1834Y1645*
X1828Y1642*
X1806*
X1828Y2096D02*
X1834Y2093D01*
X1837Y2086*
X1834Y2080*
X1828Y2077*
X1806*
Y2114*
X1828*
X1834Y2111*
X1837Y2105*
X1834Y2099*
X1828Y2096*
X1806*
X1828Y2242D02*
X1834Y2239D01*
X1837Y2233*
X1834Y2226*
X1828Y2223*
X1806*
Y2261*
X1828*
X1834Y2258*
X1837Y2251*
X1834Y2245*
X1828Y2242*
X1806*
X1828Y2342D02*
X1834Y2339D01*
X1837Y2333*
X1834Y2326*
X1828Y2323*
X1806*
Y2361*
X1828*
X1834Y2358*
X1837Y2351*
X1834Y2345*
X1828Y2342*
X1806*
Y2523D02*
X1822Y2561D01*
X1837Y2523*
X1812Y2539D02*
X1831D01*
X1806Y2723D02*
Y2761D01*
X1825*
X1831Y2758*
X1834Y2755*
X1837Y2748*
Y2736*
X1834Y2730*
X1831Y2726*
X1825Y2723*
X1806*
Y2823D02*
X1822Y2861D01*
X1837Y2823*
X1812Y2839D02*
X1831D01*
X1856Y2773D02*
Y2811D01*
X1875*
X1881Y2808*
X1884Y2805*
X1887Y2798*
Y2786*
X1884Y2780*
X1881Y2776*
X1875Y2773*
X1856*
X1906Y223D02*
X1922Y261D01*
X1937Y223*
X1912Y239D02*
X1931D01*
X1937Y330D02*
X1934Y326D01*
X1928Y323*
X1919*
X1912Y326*
X1909Y330*
X1906Y336*
Y348*
X1909Y355*
X1912Y358*
X1919Y361*
X1928*
X1934Y358*
X1937Y355*
X1906Y423D02*
Y461D01*
X1925*
X1931Y458*
X1934Y455*
X1937Y448*
Y436*
X1934Y430*
X1931Y426*
X1925Y423*
X1906*
Y523D02*
X1922Y561D01*
X1937Y523*
X1912Y539D02*
X1931D01*
X1906Y623D02*
Y661D01*
X1925*
X1931Y658*
X1934Y655*
X1937Y648*
Y636*
X1934Y630*
X1931Y626*
X1925Y623*
X1906*
X1928Y842D02*
X1934Y839D01*
X1937Y833*
X1934Y826*
X1928Y823*
X1906*
Y861*
X1928*
X1934Y858*
X1937Y851*
X1934Y845*
X1928Y842*
X1906*
X1928Y942D02*
X1934Y939D01*
X1937Y933*
X1934Y926*
X1928Y923*
X1906*
Y961*
X1928*
X1934Y958*
X1937Y951*
X1934Y945*
X1928Y942*
X1906*
X1928Y1138D02*
X1934Y1135D01*
X1937Y1129*
X1934Y1123*
X1928Y1120*
X1906*
Y1157*
X1928*
X1934Y1154*
X1937Y1148*
X1934Y1142*
X1928Y1138*
X1906*
X1928Y1592D02*
X1934Y1589D01*
X1937Y1583*
X1934Y1576*
X1928Y1573*
X1906*
Y1611*
X1928*
X1934Y1608*
X1937Y1601*
X1934Y1595*
X1928Y1592*
X1906*
X1928Y1642D02*
X1934Y1639D01*
X1937Y1633*
X1934Y1626*
X1928Y1623*
X1906*
Y1661*
X1928*
X1934Y1658*
X1937Y1651*
X1934Y1645*
X1928Y1642*
X1906*
X1928Y2096D02*
X1934Y2093D01*
X1937Y2086*
X1934Y2080*
X1928Y2077*
X1906*
Y2114*
X1928*
X1934Y2111*
X1937Y2105*
X1934Y2099*
X1928Y2096*
X1906*
X1928Y2242D02*
X1934Y2239D01*
X1937Y2233*
X1934Y2226*
X1928Y2223*
X1906*
Y2261*
X1928*
X1934Y2258*
X1937Y2251*
X1934Y2245*
X1928Y2242*
X1906*
X1928Y2342D02*
X1934Y2339D01*
X1937Y2333*
X1934Y2326*
X1928Y2323*
X1906*
Y2361*
X1928*
X1934Y2358*
X1937Y2351*
X1934Y2345*
X1928Y2342*
X1906*
Y2523D02*
X1922Y2561D01*
X1937Y2523*
X1912Y2539D02*
X1931D01*
X1906Y2723D02*
Y2761D01*
X1925*
X1931Y2758*
X1934Y2755*
X1937Y2748*
Y2736*
X1934Y2730*
X1931Y2726*
X1925Y2723*
X1906*
Y2823D02*
X1922Y2861D01*
X1937Y2823*
X1912Y2839D02*
X1931D01*
X2006Y473D02*
Y511D01*
X2025*
X2031Y508*
X2034Y505*
X2037Y498*
Y486*
X2034Y480*
X2031Y476*
X2025Y473*
X2006*
Y573D02*
Y611D01*
X2025*
X2031Y608*
X2034Y605*
X2037Y598*
Y586*
X2034Y580*
X2031Y576*
X2025Y573*
X2006*
X2056Y223D02*
Y261D01*
X2075*
X2081Y258*
X2084Y255*
X2087Y248*
Y236*
X2084Y230*
X2081Y226*
X2075Y223*
X2056*
Y1123D02*
Y1161D01*
X2075*
X2081Y1158*
X2084Y1155*
X2087Y1148*
Y1136*
X2084Y1130*
X2081Y1126*
X2075Y1123*
X2056*
X2087Y2230D02*
X2084Y2226D01*
X2078Y2223*
X2069*
X2062Y2226*
X2059Y2230*
X2056Y2236*
Y2248*
X2059Y2255*
X2062Y2258*
X2069Y2261*
X2078*
X2084Y2258*
X2087Y2255*
X2156Y223D02*
X2172Y261D01*
X2187Y223*
X2162Y239D02*
X2181D01*
X2156Y523D02*
X2172Y561D01*
X2187Y523*
X2162Y539D02*
X2181D01*
X2178Y842D02*
X2184Y839D01*
X2187Y833*
X2184Y826*
X2178Y823*
X2156*
Y861*
X2178*
X2184Y858*
X2187Y851*
X2184Y845*
X2178Y842*
X2156*
X2178Y942D02*
X2184Y939D01*
X2187Y933*
X2184Y926*
X2178Y923*
X2156*
Y961*
X2178*
X2184Y958*
X2187Y951*
X2184Y945*
X2178Y942*
X2156*
X2178Y1138D02*
X2184Y1135D01*
X2187Y1129*
X2184Y1123*
X2178Y1120*
X2156*
Y1157*
X2178*
X2184Y1154*
X2187Y1148*
X2184Y1142*
X2178Y1138*
X2156*
X2178Y1592D02*
X2184Y1589D01*
X2187Y1583*
X2184Y1576*
X2178Y1573*
X2156*
Y1611*
X2178*
X2184Y1608*
X2187Y1601*
X2184Y1595*
X2178Y1592*
X2156*
X2178Y1642D02*
X2184Y1639D01*
X2187Y1633*
X2184Y1626*
X2178Y1623*
X2156*
Y1661*
X2178*
X2184Y1658*
X2187Y1651*
X2184Y1645*
X2178Y1642*
X2156*
X2178Y2096D02*
X2184Y2093D01*
X2187Y2086*
X2184Y2080*
X2178Y2077*
X2156*
Y2114*
X2178*
X2184Y2111*
X2187Y2105*
X2184Y2099*
X2178Y2096*
X2156*
X2178Y2242D02*
X2184Y2239D01*
X2187Y2233*
X2184Y2226*
X2178Y2223*
X2156*
Y2261*
X2178*
X2184Y2258*
X2187Y2251*
X2184Y2245*
X2178Y2242*
X2156*
X2178Y2342D02*
X2184Y2339D01*
X2187Y2333*
X2184Y2326*
X2178Y2323*
X2156*
Y2361*
X2178*
X2184Y2358*
X2187Y2351*
X2184Y2345*
X2178Y2342*
X2156*
Y2523D02*
X2172Y2561D01*
X2187Y2523*
X2162Y2539D02*
X2181D01*
X2156Y2823D02*
X2172Y2861D01*
X2187Y2823*
X2162Y2839D02*
X2181D01*
X2256Y223D02*
X2272Y261D01*
X2287Y223*
X2262Y239D02*
X2281D01*
X2256Y523D02*
X2272Y561D01*
X2287Y523*
X2262Y539D02*
X2281D01*
X2278Y842D02*
X2284Y839D01*
X2287Y833*
X2284Y826*
X2278Y823*
X2256*
Y861*
X2278*
X2284Y858*
X2287Y851*
X2284Y845*
X2278Y842*
X2256*
X2278Y942D02*
X2284Y939D01*
X2287Y933*
X2284Y926*
X2278Y923*
X2256*
Y961*
X2278*
X2284Y958*
X2287Y951*
X2284Y945*
X2278Y942*
X2256*
X2278Y1138D02*
X2284Y1135D01*
X2287Y1129*
X2284Y1123*
X2278Y1120*
X2256*
Y1157*
X2278*
X2284Y1154*
X2287Y1148*
X2284Y1142*
X2278Y1138*
X2256*
X2278Y1592D02*
X2284Y1589D01*
X2287Y1583*
X2284Y1576*
X2278Y1573*
X2256*
Y1611*
X2278*
X2284Y1608*
X2287Y1601*
X2284Y1595*
X2278Y1592*
X2256*
X2278Y1642D02*
X2284Y1639D01*
X2287Y1633*
X2284Y1626*
X2278Y1623*
X2256*
Y1661*
X2278*
X2284Y1658*
X2287Y1651*
X2284Y1645*
X2278Y1642*
X2256*
X2278Y2096D02*
X2284Y2093D01*
X2287Y2086*
X2284Y2080*
X2278Y2077*
X2256*
Y2114*
X2278*
X2284Y2111*
X2287Y2105*
X2284Y2099*
X2278Y2096*
X2256*
X2278Y2242D02*
X2284Y2239D01*
X2287Y2233*
X2284Y2226*
X2278Y2223*
X2256*
Y2261*
X2278*
X2284Y2258*
X2287Y2251*
X2284Y2245*
X2278Y2242*
X2256*
X2278Y2342D02*
X2284Y2339D01*
X2287Y2333*
X2284Y2326*
X2278Y2323*
X2256*
Y2361*
X2278*
X2284Y2358*
X2287Y2351*
X2284Y2345*
X2278Y2342*
X2256*
Y2523D02*
X2272Y2561D01*
X2287Y2523*
X2262Y2539D02*
X2281D01*
X2256Y2823D02*
X2272Y2861D01*
X2287Y2823*
X2262Y2839D02*
X2281D01*
X2306Y623D02*
Y661D01*
X2325*
X2331Y658*
X2334Y655*
X2337Y648*
Y636*
X2334Y630*
X2331Y626*
X2325Y623*
X2306*
X2356Y223D02*
X2372Y261D01*
X2387Y223*
X2362Y239D02*
X2381D01*
X2356Y523D02*
X2372Y561D01*
X2387Y523*
X2362Y539D02*
X2381D01*
X2378Y842D02*
X2384Y839D01*
X2387Y833*
X2384Y826*
X2378Y823*
X2356*
Y861*
X2378*
X2384Y858*
X2387Y851*
X2384Y845*
X2378Y842*
X2356*
X2378Y942D02*
X2384Y939D01*
X2387Y933*
X2384Y926*
X2378Y923*
X2356*
Y961*
X2378*
X2384Y958*
X2387Y951*
X2384Y945*
X2378Y942*
X2356*
X2378Y1138D02*
X2384Y1135D01*
X2387Y1129*
X2384Y1123*
X2378Y1120*
X2356*
Y1157*
X2378*
X2384Y1154*
X2387Y1148*
X2384Y1142*
X2378Y1138*
X2356*
X2378Y1592D02*
X2384Y1589D01*
X2387Y1583*
X2384Y1576*
X2378Y1573*
X2356*
Y1611*
X2378*
X2384Y1608*
X2387Y1601*
X2384Y1595*
X2378Y1592*
X2356*
X2378Y1642D02*
X2384Y1639D01*
X2387Y1633*
X2384Y1626*
X2378Y1623*
X2356*
Y1661*
X2378*
X2384Y1658*
X2387Y1651*
X2384Y1645*
X2378Y1642*
X2356*
X2378Y2096D02*
X2384Y2093D01*
X2387Y2086*
X2384Y2080*
X2378Y2077*
X2356*
Y2114*
X2378*
X2384Y2111*
X2387Y2105*
X2384Y2099*
X2378Y2096*
X2356*
X2378Y2242D02*
X2384Y2239D01*
X2387Y2233*
X2384Y2226*
X2378Y2223*
X2356*
Y2261*
X2378*
X2384Y2258*
X2387Y2251*
X2384Y2245*
X2378Y2242*
X2356*
X2378Y2342D02*
X2384Y2339D01*
X2387Y2333*
X2384Y2326*
X2378Y2323*
X2356*
Y2361*
X2378*
X2384Y2358*
X2387Y2351*
X2384Y2345*
X2378Y2342*
X2356*
Y2523D02*
X2372Y2561D01*
X2387Y2523*
X2362Y2539D02*
X2381D01*
X2356Y2823D02*
X2372Y2861D01*
X2387Y2823*
X2362Y2839D02*
X2381D01*
X2456Y223D02*
X2472Y261D01*
X2487Y223*
X2462Y239D02*
X2481D01*
X2456Y523D02*
X2472Y561D01*
X2487Y523*
X2462Y539D02*
X2481D01*
X2478Y842D02*
X2484Y839D01*
X2487Y833*
X2484Y826*
X2478Y823*
X2456*
Y861*
X2478*
X2484Y858*
X2487Y851*
X2484Y845*
X2478Y842*
X2456*
X2478Y942D02*
X2484Y939D01*
X2487Y933*
X2484Y926*
X2478Y923*
X2456*
Y961*
X2478*
X2484Y958*
X2487Y951*
X2484Y945*
X2478Y942*
X2456*
X2478Y1138D02*
X2484Y1135D01*
X2487Y1129*
X2484Y1123*
X2478Y1120*
X2456*
Y1157*
X2478*
X2484Y1154*
X2487Y1148*
X2484Y1142*
X2478Y1138*
X2456*
X2478Y1592D02*
X2484Y1589D01*
X2487Y1583*
X2484Y1576*
X2478Y1573*
X2456*
Y1611*
X2478*
X2484Y1608*
X2487Y1601*
X2484Y1595*
X2478Y1592*
X2456*
X2478Y1642D02*
X2484Y1639D01*
X2487Y1633*
X2484Y1626*
X2478Y1623*
X2456*
Y1661*
X2478*
X2484Y1658*
X2487Y1651*
X2484Y1645*
X2478Y1642*
X2456*
X2478Y2096D02*
X2484Y2093D01*
X2487Y2086*
X2484Y2080*
X2478Y2077*
X2456*
Y2114*
X2478*
X2484Y2111*
X2487Y2105*
X2484Y2099*
X2478Y2096*
X2456*
X2478Y2242D02*
X2484Y2239D01*
X2487Y2233*
X2484Y2226*
X2478Y2223*
X2456*
Y2261*
X2478*
X2484Y2258*
X2487Y2251*
X2484Y2245*
X2478Y2242*
X2456*
X2478Y2342D02*
X2484Y2339D01*
X2487Y2333*
X2484Y2326*
X2478Y2323*
X2456*
Y2361*
X2478*
X2484Y2358*
X2487Y2351*
X2484Y2345*
X2478Y2342*
X2456*
Y2523D02*
X2472Y2561D01*
X2487Y2523*
X2462Y2539D02*
X2481D01*
X2456Y2823D02*
X2472Y2861D01*
X2487Y2823*
X2462Y2839D02*
X2481D01*
X2556Y223D02*
X2572Y261D01*
X2587Y223*
X2562Y239D02*
X2581D01*
X2556Y523D02*
X2572Y561D01*
X2587Y523*
X2562Y539D02*
X2581D01*
X2578Y842D02*
X2584Y839D01*
X2587Y833*
X2584Y826*
X2578Y823*
X2556*
Y861*
X2578*
X2584Y858*
X2587Y851*
X2584Y845*
X2578Y842*
X2556*
X2578Y942D02*
X2584Y939D01*
X2587Y933*
X2584Y926*
X2578Y923*
X2556*
Y961*
X2578*
X2584Y958*
X2587Y951*
X2584Y945*
X2578Y942*
X2556*
X2578Y1138D02*
X2584Y1135D01*
X2587Y1129*
X2584Y1123*
X2578Y1120*
X2556*
Y1157*
X2578*
X2584Y1154*
X2587Y1148*
X2584Y1142*
X2578Y1138*
X2556*
X2578Y1592D02*
X2584Y1589D01*
X2587Y1583*
X2584Y1576*
X2578Y1573*
X2556*
Y1611*
X2578*
X2584Y1608*
X2587Y1601*
X2584Y1595*
X2578Y1592*
X2556*
X2578Y1642D02*
X2584Y1639D01*
X2587Y1633*
X2584Y1626*
X2578Y1623*
X2556*
Y1661*
X2578*
X2584Y1658*
X2587Y1651*
X2584Y1645*
X2578Y1642*
X2556*
X2578Y2096D02*
X2584Y2093D01*
X2587Y2086*
X2584Y2080*
X2578Y2077*
X2556*
Y2114*
X2578*
X2584Y2111*
X2587Y2105*
X2584Y2099*
X2578Y2096*
X2556*
X2578Y2242D02*
X2584Y2239D01*
X2587Y2233*
X2584Y2226*
X2578Y2223*
X2556*
Y2261*
X2578*
X2584Y2258*
X2587Y2251*
X2584Y2245*
X2578Y2242*
X2556*
X2578Y2342D02*
X2584Y2339D01*
X2587Y2333*
X2584Y2326*
X2578Y2323*
X2556*
Y2361*
X2578*
X2584Y2358*
X2587Y2351*
X2584Y2345*
X2578Y2342*
X2556*
Y2523D02*
X2572Y2561D01*
X2587Y2523*
X2562Y2539D02*
X2581D01*
X2556Y2823D02*
X2572Y2861D01*
X2587Y2823*
X2562Y2839D02*
X2581D01*
X2656Y223D02*
X2672Y261D01*
X2687Y223*
X2662Y239D02*
X2681D01*
X2656Y523D02*
X2672Y561D01*
X2687Y523*
X2662Y539D02*
X2681D01*
X2678Y842D02*
X2684Y839D01*
X2687Y833*
X2684Y826*
X2678Y823*
X2656*
Y861*
X2678*
X2684Y858*
X2687Y851*
X2684Y845*
X2678Y842*
X2656*
X2678Y942D02*
X2684Y939D01*
X2687Y933*
X2684Y926*
X2678Y923*
X2656*
Y961*
X2678*
X2684Y958*
X2687Y951*
X2684Y945*
X2678Y942*
X2656*
X2678Y1138D02*
X2684Y1135D01*
X2687Y1129*
X2684Y1123*
X2678Y1120*
X2656*
Y1157*
X2678*
X2684Y1154*
X2687Y1148*
X2684Y1142*
X2678Y1138*
X2656*
X2678Y1592D02*
X2684Y1589D01*
X2687Y1583*
X2684Y1576*
X2678Y1573*
X2656*
Y1611*
X2678*
X2684Y1608*
X2687Y1601*
X2684Y1595*
X2678Y1592*
X2656*
X2678Y1642D02*
X2684Y1639D01*
X2687Y1633*
X2684Y1626*
X2678Y1623*
X2656*
Y1661*
X2678*
X2684Y1658*
X2687Y1651*
X2684Y1645*
X2678Y1642*
X2656*
X2678Y2096D02*
X2684Y2093D01*
X2687Y2086*
X2684Y2080*
X2678Y2077*
X2656*
Y2114*
X2678*
X2684Y2111*
X2687Y2105*
X2684Y2099*
X2678Y2096*
X2656*
X2678Y2242D02*
X2684Y2239D01*
X2687Y2233*
X2684Y2226*
X2678Y2223*
X2656*
Y2261*
X2678*
X2684Y2258*
X2687Y2251*
X2684Y2245*
X2678Y2242*
X2656*
X2678Y2342D02*
X2684Y2339D01*
X2687Y2333*
X2684Y2326*
X2678Y2323*
X2656*
Y2361*
X2678*
X2684Y2358*
X2687Y2351*
X2684Y2345*
X2678Y2342*
X2656*
Y2523D02*
X2672Y2561D01*
X2687Y2523*
X2662Y2539D02*
X2681D01*
X2656Y2623D02*
Y2661D01*
X2675*
X2681Y2658*
X2684Y2655*
X2687Y2648*
Y2636*
X2684Y2630*
X2681Y2626*
X2675Y2623*
X2656*
Y2823D02*
X2672Y2861D01*
X2687Y2823*
X2662Y2839D02*
X2681D01*
X2756Y223D02*
X2772Y261D01*
X2787Y223*
X2762Y239D02*
X2781D01*
X2756Y373D02*
Y411D01*
X2775*
X2781Y408*
X2784Y405*
X2787Y398*
Y386*
X2784Y380*
X2781Y376*
X2775Y373*
X2756*
Y523D02*
X2772Y561D01*
X2787Y523*
X2762Y539D02*
X2781D01*
X2756Y673D02*
Y711D01*
X2775*
X2781Y708*
X2784Y705*
X2787Y698*
Y686*
X2784Y680*
X2781Y676*
X2775Y673*
X2756*
X2778Y842D02*
X2784Y839D01*
X2787Y833*
X2784Y826*
X2778Y823*
X2756*
Y861*
X2778*
X2784Y858*
X2787Y851*
X2784Y845*
X2778Y842*
X2756*
X2778Y942D02*
X2784Y939D01*
X2787Y933*
X2784Y926*
X2778Y923*
X2756*
Y961*
X2778*
X2784Y958*
X2787Y951*
X2784Y945*
X2778Y942*
X2756*
X2778Y1138D02*
X2784Y1135D01*
X2787Y1129*
X2784Y1123*
X2778Y1120*
X2756*
Y1157*
X2778*
X2784Y1154*
X2787Y1148*
X2784Y1142*
X2778Y1138*
X2756*
X2778Y1592D02*
X2784Y1589D01*
X2787Y1583*
X2784Y1576*
X2778Y1573*
X2756*
Y1611*
X2778*
X2784Y1608*
X2787Y1601*
X2784Y1595*
X2778Y1592*
X2756*
X2778Y1642D02*
X2784Y1639D01*
X2787Y1633*
X2784Y1626*
X2778Y1623*
X2756*
Y1661*
X2778*
X2784Y1658*
X2787Y1651*
X2784Y1645*
X2778Y1642*
X2756*
X2778Y2096D02*
X2784Y2093D01*
X2787Y2086*
X2784Y2080*
X2778Y2077*
X2756*
Y2114*
X2778*
X2784Y2111*
X2787Y2105*
X2784Y2099*
X2778Y2096*
X2756*
X2778Y2242D02*
X2784Y2239D01*
X2787Y2233*
X2784Y2226*
X2778Y2223*
X2756*
Y2261*
X2778*
X2784Y2258*
X2787Y2251*
X2784Y2245*
X2778Y2242*
X2756*
X2778Y2342D02*
X2784Y2339D01*
X2787Y2333*
X2784Y2326*
X2778Y2323*
X2756*
Y2361*
X2778*
X2784Y2358*
X2787Y2351*
X2784Y2345*
X2778Y2342*
X2756*
Y2523D02*
X2772Y2561D01*
X2787Y2523*
X2762Y2539D02*
X2781D01*
X2756Y2673D02*
Y2711D01*
X2775*
X2781Y2708*
X2784Y2705*
X2787Y2698*
Y2686*
X2784Y2680*
X2781Y2676*
X2775Y2673*
X2756*
Y2823D02*
X2772Y2861D01*
X2787Y2823*
X2762Y2839D02*
X2781D01*
X2806Y973D02*
Y1011D01*
X2825*
X2831Y1008*
X2834Y1005*
X2837Y998*
Y986*
X2834Y980*
X2831Y976*
X2825Y973*
X2806*
Y1423D02*
Y1461D01*
X2825*
X2831Y1458*
X2834Y1455*
X2837Y1448*
Y1436*
X2834Y1430*
X2831Y1426*
X2825Y1423*
X2806*
X2856Y223D02*
X2872Y261D01*
X2887Y223*
X2862Y239D02*
X2881D01*
X2887Y330D02*
X2884Y326D01*
X2878Y323*
X2869*
X2862Y326*
X2859Y330*
X2856Y336*
Y348*
X2859Y355*
X2862Y358*
X2869Y361*
X2878*
X2884Y358*
X2887Y355*
X2856Y423D02*
Y461D01*
X2875*
X2881Y458*
X2884Y455*
X2887Y448*
Y436*
X2884Y430*
X2881Y426*
X2875Y423*
X2856*
Y523D02*
X2872Y561D01*
X2887Y523*
X2862Y539D02*
X2881D01*
X2878Y842D02*
X2884Y839D01*
X2887Y833*
X2884Y826*
X2878Y823*
X2856*
Y861*
X2878*
X2884Y858*
X2887Y851*
X2884Y845*
X2878Y842*
X2856*
X2878Y942D02*
X2884Y939D01*
X2887Y933*
X2884Y926*
X2878Y923*
X2856*
Y961*
X2878*
X2884Y958*
X2887Y951*
X2884Y945*
X2878Y942*
X2856*
X2887Y1030D02*
X2884Y1026D01*
X2878Y1023*
X2869*
X2862Y1026*
X2859Y1030*
X2856Y1036*
Y1048*
X2859Y1055*
X2862Y1058*
X2869Y1061*
X2878*
X2884Y1058*
X2887Y1055*
X2878Y1138D02*
X2884Y1135D01*
X2887Y1129*
X2884Y1123*
X2878Y1120*
X2856*
Y1157*
X2878*
X2884Y1154*
X2887Y1148*
X2884Y1142*
X2878Y1138*
X2856*
X2878Y1592D02*
X2884Y1589D01*
X2887Y1583*
X2884Y1576*
X2878Y1573*
X2856*
Y1611*
X2878*
X2884Y1608*
X2887Y1601*
X2884Y1595*
X2878Y1592*
X2856*
X2878Y1642D02*
X2884Y1639D01*
X2887Y1633*
X2884Y1626*
X2878Y1623*
X2856*
Y1661*
X2878*
X2884Y1658*
X2887Y1651*
X2884Y1645*
X2878Y1642*
X2856*
X2878Y2096D02*
X2884Y2093D01*
X2887Y2086*
X2884Y2080*
X2878Y2077*
X2856*
Y2114*
X2878*
X2884Y2111*
X2887Y2105*
X2884Y2099*
X2878Y2096*
X2856*
X2878Y2242D02*
X2884Y2239D01*
X2887Y2233*
X2884Y2226*
X2878Y2223*
X2856*
Y2261*
X2878*
X2884Y2258*
X2887Y2251*
X2884Y2245*
X2878Y2242*
X2856*
X2878Y2342D02*
X2884Y2339D01*
X2887Y2333*
X2884Y2326*
X2878Y2323*
X2856*
Y2361*
X2878*
X2884Y2358*
X2887Y2351*
X2884Y2345*
X2878Y2342*
X2856*
Y2523D02*
X2872Y2561D01*
X2887Y2523*
X2862Y2539D02*
X2881D01*
X2856Y2823D02*
X2872Y2861D01*
X2887Y2823*
X2862Y2839D02*
X2881D01*
X2906Y473D02*
Y511D01*
X2925*
X2931Y508*
X2934Y505*
X2937Y498*
Y486*
X2934Y480*
X2931Y476*
X2925Y473*
X2906*
Y973D02*
Y1011D01*
X2925*
X2931Y1008*
X2934Y1005*
X2937Y998*
Y986*
X2934Y980*
X2931Y976*
X2925Y973*
X2906*
X2956Y823D02*
Y861D01*
X2975*
X2981Y858*
X2984Y855*
X2987Y848*
Y836*
X2984Y830*
X2981Y826*
X2975Y823*
X2956*
X3006Y223D02*
Y261D01*
X3025*
X3031Y258*
X3034Y255*
X3037Y248*
Y236*
X3034Y230*
X3031Y226*
X3025Y223*
X3006*
X3037Y2230D02*
X3034Y2226D01*
X3028Y2223*
X3019*
X3012Y2226*
X3009Y2230*
X3006Y2236*
Y2248*
X3009Y2255*
X3012Y2258*
X3019Y2261*
X3028*
X3034Y2258*
X3037Y2255*
Y2380D02*
X3034Y2376D01*
X3028Y2373*
X3019*
X3012Y2376*
X3009Y2380*
X3006Y2386*
Y2398*
X3009Y2405*
X3012Y2408*
X3019Y2411*
X3028*
X3034Y2408*
X3037Y2405*
X3106Y223D02*
X3122Y261D01*
X3137Y223*
X3112Y239D02*
X3131D01*
X3106Y523D02*
X3122Y561D01*
X3137Y523*
X3112Y539D02*
X3131D01*
X3128Y842D02*
X3134Y839D01*
X3137Y833*
X3134Y826*
X3128Y823*
X3106*
Y861*
X3128*
X3134Y858*
X3137Y851*
X3134Y845*
X3128Y842*
X3106*
X3128Y942D02*
X3134Y939D01*
X3137Y933*
X3134Y926*
X3128Y923*
X3106*
Y961*
X3128*
X3134Y958*
X3137Y951*
X3134Y945*
X3128Y942*
X3106*
X3128Y1138D02*
X3134Y1135D01*
X3137Y1129*
X3134Y1123*
X3128Y1120*
X3106*
Y1157*
X3128*
X3134Y1154*
X3137Y1148*
X3134Y1142*
X3128Y1138*
X3106*
X3128Y1592D02*
X3134Y1589D01*
X3137Y1583*
X3134Y1576*
X3128Y1573*
X3106*
Y1611*
X3128*
X3134Y1608*
X3137Y1601*
X3134Y1595*
X3128Y1592*
X3106*
X3128Y1642D02*
X3134Y1639D01*
X3137Y1633*
X3134Y1626*
X3128Y1623*
X3106*
Y1661*
X3128*
X3134Y1658*
X3137Y1651*
X3134Y1645*
X3128Y1642*
X3106*
X3128Y2096D02*
X3134Y2093D01*
X3137Y2086*
X3134Y2080*
X3128Y2077*
X3106*
Y2114*
X3128*
X3134Y2111*
X3137Y2105*
X3134Y2099*
X3128Y2096*
X3106*
X3128Y2242D02*
X3134Y2239D01*
X3137Y2233*
X3134Y2226*
X3128Y2223*
X3106*
Y2261*
X3128*
X3134Y2258*
X3137Y2251*
X3134Y2245*
X3128Y2242*
X3106*
X3128Y2342D02*
X3134Y2339D01*
X3137Y2333*
X3134Y2326*
X3128Y2323*
X3106*
Y2361*
X3128*
X3134Y2358*
X3137Y2351*
X3134Y2345*
X3128Y2342*
X3106*
Y2523D02*
X3122Y2561D01*
X3137Y2523*
X3112Y2539D02*
X3131D01*
X3106Y2823D02*
X3122Y2861D01*
X3137Y2823*
X3112Y2839D02*
X3131D01*
X3206Y223D02*
X3222Y261D01*
X3237Y223*
X3212Y239D02*
X3231D01*
X3206Y523D02*
X3222Y561D01*
X3237Y523*
X3212Y539D02*
X3231D01*
X3228Y842D02*
X3234Y839D01*
X3237Y833*
X3234Y826*
X3228Y823*
X3206*
Y861*
X3228*
X3234Y858*
X3237Y851*
X3234Y845*
X3228Y842*
X3206*
X3228Y942D02*
X3234Y939D01*
X3237Y933*
X3234Y926*
X3228Y923*
X3206*
Y961*
X3228*
X3234Y958*
X3237Y951*
X3234Y945*
X3228Y942*
X3206*
X3228Y1138D02*
X3234Y1135D01*
X3237Y1129*
X3234Y1123*
X3228Y1120*
X3206*
Y1157*
X3228*
X3234Y1154*
X3237Y1148*
X3234Y1142*
X3228Y1138*
X3206*
X3228Y1592D02*
X3234Y1589D01*
X3237Y1583*
X3234Y1576*
X3228Y1573*
X3206*
Y1611*
X3228*
X3234Y1608*
X3237Y1601*
X3234Y1595*
X3228Y1592*
X3206*
X3228Y1642D02*
X3234Y1639D01*
X3237Y1633*
X3234Y1626*
X3228Y1623*
X3206*
Y1661*
X3228*
X3234Y1658*
X3237Y1651*
X3234Y1645*
X3228Y1642*
X3206*
X3228Y2096D02*
X3234Y2093D01*
X3237Y2086*
X3234Y2080*
X3228Y2077*
X3206*
Y2114*
X3228*
X3234Y2111*
X3237Y2105*
X3234Y2099*
X3228Y2096*
X3206*
X3228Y2242D02*
X3234Y2239D01*
X3237Y2233*
X3234Y2226*
X3228Y2223*
X3206*
Y2261*
X3228*
X3234Y2258*
X3237Y2251*
X3234Y2245*
X3228Y2242*
X3206*
X3228Y2342D02*
X3234Y2339D01*
X3237Y2333*
X3234Y2326*
X3228Y2323*
X3206*
Y2361*
X3228*
X3234Y2358*
X3237Y2351*
X3234Y2345*
X3228Y2342*
X3206*
Y2523D02*
X3222Y2561D01*
X3237Y2523*
X3212Y2539D02*
X3231D01*
X3206Y2823D02*
X3222Y2861D01*
X3237Y2823*
X3212Y2839D02*
X3231D01*
X3306Y223D02*
X3322Y261D01*
X3337Y223*
X3312Y239D02*
X3331D01*
X3306Y523D02*
X3322Y561D01*
X3337Y523*
X3312Y539D02*
X3331D01*
X3328Y842D02*
X3334Y839D01*
X3337Y833*
X3334Y826*
X3328Y823*
X3306*
Y861*
X3328*
X3334Y858*
X3337Y851*
X3334Y845*
X3328Y842*
X3306*
X3328Y942D02*
X3334Y939D01*
X3337Y933*
X3334Y926*
X3328Y923*
X3306*
Y961*
X3328*
X3334Y958*
X3337Y951*
X3334Y945*
X3328Y942*
X3306*
X3328Y1138D02*
X3334Y1135D01*
X3337Y1129*
X3334Y1123*
X3328Y1120*
X3306*
Y1157*
X3328*
X3334Y1154*
X3337Y1148*
X3334Y1142*
X3328Y1138*
X3306*
X3328Y1592D02*
X3334Y1589D01*
X3337Y1583*
X3334Y1576*
X3328Y1573*
X3306*
Y1611*
X3328*
X3334Y1608*
X3337Y1601*
X3334Y1595*
X3328Y1592*
X3306*
X3328Y1642D02*
X3334Y1639D01*
X3337Y1633*
X3334Y1626*
X3328Y1623*
X3306*
Y1661*
X3328*
X3334Y1658*
X3337Y1651*
X3334Y1645*
X3328Y1642*
X3306*
X3328Y2096D02*
X3334Y2093D01*
X3337Y2086*
X3334Y2080*
X3328Y2077*
X3306*
Y2114*
X3328*
X3334Y2111*
X3337Y2105*
X3334Y2099*
X3328Y2096*
X3306*
X3328Y2242D02*
X3334Y2239D01*
X3337Y2233*
X3334Y2226*
X3328Y2223*
X3306*
Y2261*
X3328*
X3334Y2258*
X3337Y2251*
X3334Y2245*
X3328Y2242*
X3306*
X3328Y2342D02*
X3334Y2339D01*
X3337Y2333*
X3334Y2326*
X3328Y2323*
X3306*
Y2361*
X3328*
X3334Y2358*
X3337Y2351*
X3334Y2345*
X3328Y2342*
X3306*
Y2523D02*
X3322Y2561D01*
X3337Y2523*
X3312Y2539D02*
X3331D01*
X3306Y2823D02*
X3322Y2861D01*
X3337Y2823*
X3312Y2839D02*
X3331D01*
X3406Y223D02*
X3422Y261D01*
X3437Y223*
X3412Y239D02*
X3431D01*
X3406Y523D02*
X3422Y561D01*
X3437Y523*
X3412Y539D02*
X3431D01*
X3428Y842D02*
X3434Y839D01*
X3437Y833*
X3434Y826*
X3428Y823*
X3406*
Y861*
X3428*
X3434Y858*
X3437Y851*
X3434Y845*
X3428Y842*
X3406*
X3428Y942D02*
X3434Y939D01*
X3437Y933*
X3434Y926*
X3428Y923*
X3406*
Y961*
X3428*
X3434Y958*
X3437Y951*
X3434Y945*
X3428Y942*
X3406*
X3428Y1138D02*
X3434Y1135D01*
X3437Y1129*
X3434Y1123*
X3428Y1120*
X3406*
Y1157*
X3428*
X3434Y1154*
X3437Y1148*
X3434Y1142*
X3428Y1138*
X3406*
X3428Y1592D02*
X3434Y1589D01*
X3437Y1583*
X3434Y1576*
X3428Y1573*
X3406*
Y1611*
X3428*
X3434Y1608*
X3437Y1601*
X3434Y1595*
X3428Y1592*
X3406*
X3428Y1642D02*
X3434Y1639D01*
X3437Y1633*
X3434Y1626*
X3428Y1623*
X3406*
Y1661*
X3428*
X3434Y1658*
X3437Y1651*
X3434Y1645*
X3428Y1642*
X3406*
X3428Y2096D02*
X3434Y2093D01*
X3437Y2086*
X3434Y2080*
X3428Y2077*
X3406*
Y2114*
X3428*
X3434Y2111*
X3437Y2105*
X3434Y2099*
X3428Y2096*
X3406*
X3428Y2242D02*
X3434Y2239D01*
X3437Y2233*
X3434Y2226*
X3428Y2223*
X3406*
Y2261*
X3428*
X3434Y2258*
X3437Y2251*
X3434Y2245*
X3428Y2242*
X3406*
X3428Y2342D02*
X3434Y2339D01*
X3437Y2333*
X3434Y2326*
X3428Y2323*
X3406*
Y2361*
X3428*
X3434Y2358*
X3437Y2351*
X3434Y2345*
X3428Y2342*
X3406*
Y2523D02*
X3422Y2561D01*
X3437Y2523*
X3412Y2539D02*
X3431D01*
X3406Y2823D02*
X3422Y2861D01*
X3437Y2823*
X3412Y2839D02*
X3431D01*
X3506Y223D02*
X3522Y261D01*
X3537Y223*
X3512Y239D02*
X3531D01*
X3506Y373D02*
Y411D01*
X3525*
X3531Y408*
X3534Y405*
X3537Y398*
Y386*
X3534Y380*
X3531Y376*
X3525Y373*
X3506*
Y523D02*
X3522Y561D01*
X3537Y523*
X3512Y539D02*
X3531D01*
X3528Y842D02*
X3534Y839D01*
X3537Y833*
X3534Y826*
X3528Y823*
X3506*
Y861*
X3528*
X3534Y858*
X3537Y851*
X3534Y845*
X3528Y842*
X3506*
X3528Y942D02*
X3534Y939D01*
X3537Y933*
X3534Y926*
X3528Y923*
X3506*
Y961*
X3528*
X3534Y958*
X3537Y951*
X3534Y945*
X3528Y942*
X3506*
X3528Y1138D02*
X3534Y1135D01*
X3537Y1129*
X3534Y1123*
X3528Y1120*
X3506*
Y1157*
X3528*
X3534Y1154*
X3537Y1148*
X3534Y1142*
X3528Y1138*
X3506*
X3528Y1592D02*
X3534Y1589D01*
X3537Y1583*
X3534Y1576*
X3528Y1573*
X3506*
Y1611*
X3528*
X3534Y1608*
X3537Y1601*
X3534Y1595*
X3528Y1592*
X3506*
X3528Y1642D02*
X3534Y1639D01*
X3537Y1633*
X3534Y1626*
X3528Y1623*
X3506*
Y1661*
X3528*
X3534Y1658*
X3537Y1651*
X3534Y1645*
X3528Y1642*
X3506*
X3528Y2096D02*
X3534Y2093D01*
X3537Y2086*
X3534Y2080*
X3528Y2077*
X3506*
Y2114*
X3528*
X3534Y2111*
X3537Y2105*
X3534Y2099*
X3528Y2096*
X3506*
X3528Y2242D02*
X3534Y2239D01*
X3537Y2233*
X3534Y2226*
X3528Y2223*
X3506*
Y2261*
X3528*
X3534Y2258*
X3537Y2251*
X3534Y2245*
X3528Y2242*
X3506*
X3528Y2342D02*
X3534Y2339D01*
X3537Y2333*
X3534Y2326*
X3528Y2323*
X3506*
Y2361*
X3528*
X3534Y2358*
X3537Y2351*
X3534Y2345*
X3528Y2342*
X3506*
Y2523D02*
X3522Y2561D01*
X3537Y2523*
X3512Y2539D02*
X3531D01*
X3506Y2823D02*
X3522Y2861D01*
X3537Y2823*
X3512Y2839D02*
X3531D01*
X3556Y973D02*
Y1011D01*
X3575*
X3581Y1008*
X3584Y1005*
X3587Y998*
Y986*
X3584Y980*
X3581Y976*
X3575Y973*
X3556*
X3606Y223D02*
X3622Y261D01*
X3637Y223*
X3612Y239D02*
X3631D01*
X3606Y523D02*
X3622Y561D01*
X3637Y523*
X3612Y539D02*
X3631D01*
X3606Y623D02*
Y661D01*
X3625*
X3631Y658*
X3634Y655*
X3637Y648*
Y636*
X3634Y630*
X3631Y626*
X3625Y623*
X3606*
X3628Y842D02*
X3634Y839D01*
X3637Y833*
X3634Y826*
X3628Y823*
X3606*
Y861*
X3628*
X3634Y858*
X3637Y851*
X3634Y845*
X3628Y842*
X3606*
X3628Y942D02*
X3634Y939D01*
X3637Y933*
X3634Y926*
X3628Y923*
X3606*
Y961*
X3628*
X3634Y958*
X3637Y951*
X3634Y945*
X3628Y942*
X3606*
Y1023D02*
Y1061D01*
X3625*
X3631Y1058*
X3634Y1055*
X3637Y1048*
Y1036*
X3634Y1030*
X3631Y1026*
X3625Y1023*
X3606*
X3628Y1138D02*
X3634Y1135D01*
X3637Y1129*
X3634Y1123*
X3628Y1120*
X3606*
Y1157*
X3628*
X3634Y1154*
X3637Y1148*
X3634Y1142*
X3628Y1138*
X3606*
X3628Y1592D02*
X3634Y1589D01*
X3637Y1583*
X3634Y1576*
X3628Y1573*
X3606*
Y1611*
X3628*
X3634Y1608*
X3637Y1601*
X3634Y1595*
X3628Y1592*
X3606*
X3628Y1642D02*
X3634Y1639D01*
X3637Y1633*
X3634Y1626*
X3628Y1623*
X3606*
Y1661*
X3628*
X3634Y1658*
X3637Y1651*
X3634Y1645*
X3628Y1642*
X3606*
X3628Y2096D02*
X3634Y2093D01*
X3637Y2086*
X3634Y2080*
X3628Y2077*
X3606*
Y2114*
X3628*
X3634Y2111*
X3637Y2105*
X3634Y2099*
X3628Y2096*
X3606*
X3628Y2242D02*
X3634Y2239D01*
X3637Y2233*
X3634Y2226*
X3628Y2223*
X3606*
Y2261*
X3628*
X3634Y2258*
X3637Y2251*
X3634Y2245*
X3628Y2242*
X3606*
X3628Y2342D02*
X3634Y2339D01*
X3637Y2333*
X3634Y2326*
X3628Y2323*
X3606*
Y2361*
X3628*
X3634Y2358*
X3637Y2351*
X3634Y2345*
X3628Y2342*
X3606*
Y2523D02*
X3622Y2561D01*
X3637Y2523*
X3612Y2539D02*
X3631D01*
X3606Y2823D02*
X3622Y2861D01*
X3637Y2823*
X3612Y2839D02*
X3631D01*
X3687Y880D02*
X3684Y876D01*
X3678Y873*
X3669*
X3662Y876*
X3659Y880*
X3656Y886*
Y898*
X3659Y905*
X3662Y908*
X3669Y911*
X3678*
X3684Y908*
X3687Y905*
Y1480D02*
X3684Y1476D01*
X3678Y1473*
X3669*
X3662Y1476*
X3659Y1480*
X3656Y1486*
Y1498*
X3659Y1505*
X3662Y1508*
X3669Y1511*
X3678*
X3684Y1508*
X3687Y1505*
X3656Y2573D02*
Y2611D01*
X3675*
X3681Y2608*
X3684Y2605*
X3687Y2598*
Y2586*
X3684Y2580*
X3681Y2576*
X3675Y2573*
X3656*
X3706Y223D02*
X3722Y261D01*
X3737Y223*
X3712Y239D02*
X3731D01*
X3706Y523D02*
X3722Y561D01*
X3737Y523*
X3712Y539D02*
X3731D01*
X3706Y673D02*
Y711D01*
X3725*
X3731Y708*
X3734Y705*
X3737Y698*
Y686*
X3734Y680*
X3731Y676*
X3725Y673*
X3706*
X3728Y842D02*
X3734Y839D01*
X3737Y833*
X3734Y826*
X3728Y823*
X3706*
Y861*
X3728*
X3734Y858*
X3737Y851*
X3734Y845*
X3728Y842*
X3706*
X3728Y942D02*
X3734Y939D01*
X3737Y933*
X3734Y926*
X3728Y923*
X3706*
Y961*
X3728*
X3734Y958*
X3737Y951*
X3734Y945*
X3728Y942*
X3706*
X3728Y1138D02*
X3734Y1135D01*
X3737Y1129*
X3734Y1123*
X3728Y1120*
X3706*
Y1157*
X3728*
X3734Y1154*
X3737Y1148*
X3734Y1142*
X3728Y1138*
X3706*
X3728Y1592D02*
X3734Y1589D01*
X3737Y1583*
X3734Y1576*
X3728Y1573*
X3706*
Y1611*
X3728*
X3734Y1608*
X3737Y1601*
X3734Y1595*
X3728Y1592*
X3706*
X3728Y1642D02*
X3734Y1639D01*
X3737Y1633*
X3734Y1626*
X3728Y1623*
X3706*
Y1661*
X3728*
X3734Y1658*
X3737Y1651*
X3734Y1645*
X3728Y1642*
X3706*
X3728Y2096D02*
X3734Y2093D01*
X3737Y2086*
X3734Y2080*
X3728Y2077*
X3706*
Y2114*
X3728*
X3734Y2111*
X3737Y2105*
X3734Y2099*
X3728Y2096*
X3706*
X3728Y2242D02*
X3734Y2239D01*
X3737Y2233*
X3734Y2226*
X3728Y2223*
X3706*
Y2261*
X3728*
X3734Y2258*
X3737Y2251*
X3734Y2245*
X3728Y2242*
X3706*
X3728Y2342D02*
X3734Y2339D01*
X3737Y2333*
X3734Y2326*
X3728Y2323*
X3706*
Y2361*
X3728*
X3734Y2358*
X3737Y2351*
X3734Y2345*
X3728Y2342*
X3706*
Y2523D02*
X3722Y2561D01*
X3737Y2523*
X3712Y2539D02*
X3731D01*
X3706Y2673D02*
Y2711D01*
X3725*
X3731Y2708*
X3734Y2705*
X3737Y2698*
Y2686*
X3734Y2680*
X3731Y2676*
X3725Y2673*
X3706*
Y2823D02*
X3722Y2861D01*
X3737Y2823*
X3712Y2839D02*
X3731D01*
X3756Y1323D02*
Y1361D01*
X3775*
X3781Y1358*
X3784Y1355*
X3787Y1348*
Y1336*
X3784Y1330*
X3781Y1326*
X3775Y1323*
X3756*
Y2273D02*
Y2311D01*
X3775*
X3781Y2308*
X3784Y2305*
X3787Y2298*
Y2286*
X3784Y2280*
X3781Y2276*
X3775Y2273*
X3756*
Y2573D02*
Y2611D01*
X3775*
X3781Y2608*
X3784Y2605*
X3787Y2598*
Y2586*
X3784Y2580*
X3781Y2576*
X3775Y2573*
X3756*
X3806Y223D02*
X3822Y261D01*
X3837Y223*
X3812Y239D02*
X3831D01*
X3806Y423D02*
Y461D01*
X3825*
X3831Y458*
X3834Y455*
X3837Y448*
Y436*
X3834Y430*
X3831Y426*
X3825Y423*
X3806*
Y523D02*
X3822Y561D01*
X3837Y523*
X3812Y539D02*
X3831D01*
X3828Y842D02*
X3834Y839D01*
X3837Y833*
X3834Y826*
X3828Y823*
X3806*
Y861*
X3828*
X3834Y858*
X3837Y851*
X3834Y845*
X3828Y842*
X3806*
X3828Y942D02*
X3834Y939D01*
X3837Y933*
X3834Y926*
X3828Y923*
X3806*
Y961*
X3828*
X3834Y958*
X3837Y951*
X3834Y945*
X3828Y942*
X3806*
X3828Y1138D02*
X3834Y1135D01*
X3837Y1129*
X3834Y1123*
X3828Y1120*
X3806*
Y1157*
X3828*
X3834Y1154*
X3837Y1148*
X3834Y1142*
X3828Y1138*
X3806*
X3828Y1592D02*
X3834Y1589D01*
X3837Y1583*
X3834Y1576*
X3828Y1573*
X3806*
Y1611*
X3828*
X3834Y1608*
X3837Y1601*
X3834Y1595*
X3828Y1592*
X3806*
X3828Y1642D02*
X3834Y1639D01*
X3837Y1633*
X3834Y1626*
X3828Y1623*
X3806*
Y1661*
X3828*
X3834Y1658*
X3837Y1651*
X3834Y1645*
X3828Y1642*
X3806*
X3828Y2096D02*
X3834Y2093D01*
X3837Y2086*
X3834Y2080*
X3828Y2077*
X3806*
Y2114*
X3828*
X3834Y2111*
X3837Y2105*
X3834Y2099*
X3828Y2096*
X3806*
X3828Y2242D02*
X3834Y2239D01*
X3837Y2233*
X3834Y2226*
X3828Y2223*
X3806*
Y2261*
X3828*
X3834Y2258*
X3837Y2251*
X3834Y2245*
X3828Y2242*
X3806*
X3828Y2342D02*
X3834Y2339D01*
X3837Y2333*
X3834Y2326*
X3828Y2323*
X3806*
Y2361*
X3828*
X3834Y2358*
X3837Y2351*
X3834Y2345*
X3828Y2342*
X3806*
Y2523D02*
X3822Y2561D01*
X3837Y2523*
X3812Y2539D02*
X3831D01*
X3806Y2723D02*
Y2761D01*
X3825*
X3831Y2758*
X3834Y2755*
X3837Y2748*
Y2736*
X3834Y2730*
X3831Y2726*
X3825Y2723*
X3806*
Y2823D02*
X3822Y2861D01*
X3837Y2823*
X3812Y2839D02*
X3831D01*
X3856Y1198D02*
Y1236D01*
X3875*
X3881Y1233*
X3884Y1230*
X3887Y1223*
Y1211*
X3884Y1205*
X3881Y1201*
X3875Y1198*
X3856*
X3887Y1480D02*
X3884Y1476D01*
X3878Y1473*
X3869*
X3862Y1476*
X3859Y1480*
X3856Y1486*
Y1498*
X3859Y1505*
X3862Y1508*
X3869Y1511*
X3878*
X3884Y1508*
X3887Y1505*
X3906Y1373D02*
Y1411D01*
X3925*
X3931Y1408*
X3934Y1405*
X3937Y1398*
Y1386*
X3934Y1380*
X3931Y1376*
X3925Y1373*
X3906*
Y1673D02*
Y1711D01*
X3925*
X3931Y1708*
X3934Y1705*
X3937Y1698*
Y1686*
X3934Y1680*
X3931Y1676*
X3925Y1673*
X3906*
Y2473D02*
Y2511D01*
X3925*
X3931Y2508*
X3934Y2505*
X3937Y2498*
Y2486*
X3934Y2480*
X3931Y2476*
X3925Y2473*
X3906*
X3978Y1342D02*
X3984Y1339D01*
X3987Y1333*
X3984Y1326*
X3978Y1323*
X3956*
Y1361*
X3978*
X3984Y1358*
X3987Y1351*
X3984Y1345*
X3978Y1342*
X3956*
X3978Y1442D02*
X3984Y1439D01*
X3987Y1433*
X3984Y1426*
X3978Y1423*
X3956*
Y1461*
X3978*
X3984Y1458*
X3987Y1451*
X3984Y1445*
X3978Y1442*
X3956*
X3978Y1542D02*
X3984Y1539D01*
X3987Y1533*
X3984Y1526*
X3978Y1523*
X3956*
Y1561*
X3978*
X3984Y1558*
X3987Y1551*
X3984Y1545*
X3978Y1542*
X3956*
X3978Y1642D02*
X3984Y1639D01*
X3987Y1633*
X3984Y1626*
X3978Y1623*
X3956*
Y1661*
X3978*
X3984Y1658*
X3987Y1651*
X3984Y1645*
X3978Y1642*
X3956*
X3978Y1742D02*
X3984Y1739D01*
X3987Y1733*
X3984Y1726*
X3978Y1723*
X3956*
Y1761*
X3978*
X3984Y1758*
X3987Y1751*
X3984Y1745*
X3978Y1742*
X3956*
X0Y0D02*
M02*
